<ttFont>
<head>
    <!-- Most of this table will be recalculated by the compiler -->
    <tableVersion value="1.0"/>
    <fontRevision value="2.004"/>
    <checkSumAdjustment value="0x795b9f0b"/>
    <magicNumber value="0x5f0f3cf5"/>
    <flags value="00000000 00000011"/>
    <unitsPerEm value="1000"/>
    <created value="Thu Oct  8 10:02:58 2009"/>
    <modified value="Thu Oct  8 10:02:58 2009"/>
    <xMin value="-466"/>
    <yMin value="-326"/>
    <xMax value="1499"/>
    <yMax value="968"/>
    <macStyle value="00000000 00000010"/>
    <lowestRecPPEM value="3"/>
    <fontDirectionHint value="2"/>
    <indexToLocFormat value="0"/>
    <glyphDataFormat value="0"/>
  </head>
          <CharString index="0">
            rmoveto
            1 8 -3 8 -8 3 -115 44 rcurveline
            -4 1 -6 0 -4 -1 -129 -44 rcurveline
            -10 -3 -5 -8 -1 -8 rrcurveto
            -11 -2 6 -11 11 hhcurveto
            3 2 0 1 3 hvcurveto
            121 35 109 -35 rlineto
            -1 3 2 0 3 hhcurveto
            11 10 11 11 2 hvcurveto
            return
          </CharString>
          <CharString index="1">
            810 588 rmoveto
            -53 callsubr
            -183 hlineto
            -12 -19 62 callsubr
            11 hhcurveto
            65 hlineto
            -60 -358 rlineto
            -124 -21 -113 -52 -78 hhcurveto
            -83 -92 55 121 20 hvcurveto
            60 358 rlineto
            64 -63 callsubr
            -182 -34 callsubr
            -61 -364 rlineto
            -125 -21 95 -89 126 hhcurveto
            130 122 91 123 21 hvcurveto
            61 364 19 callsubr
            return
          </CharString>
          <CharString index="2">
            hintmask 01100000
            -64 callgsubr
            59 349 rlineto
            24 4 -4 9 -27 hhcurveto
            -85 144 callgsubr
            -23 181 callsubr
            -39 -229 rlineto
            hintmask 10100000
            -104 -17 -109 -10 -38 hhcurveto
            -103 7 42 35 6 hvcurveto
            47 278 rlineto
            24 4 -3 9 -28 -48 callgsubr
            -46 -272 rlineto
            -108 -18 95 -7 53 hhcurveto
            67 46 20 32 47 hvcurveto
            hintmask 01000000
            -46 -8 17 0 15 -5 callgsubr
            return
          </CharString>
          <CharString index="3">
            451 239 callsubr
            -11 -6 hvcurveto
            -59 -35 -56 -14 -36 hhcurveto
            -81 -68 59 100 hvcurveto
            308 hlineto
            17 15 0 29 5 hvcurveto
            117 19 -48 92 -122 hhcurveto
            -116 -108 -101 -119 -20 hvcurveto
            -122 -20 81 -99 125 hhcurveto
            123 61 84 25 4 hvcurveto
            -31 137 rmoveto
            -285 hlineto
            93 33 73 58 72 hhcurveto
            56 62 -27 -124 -11 hvcurveto
            return
          </CharString>
          <CharString index="4">
            520 213 rmoveto
            121 20 -81 101 -124 hhcurveto
            -124 -115 -101 -121 -20 hvcurveto
            -122 -21 84 -97 122 hhcurveto
            122 116 97 122 21 hvcurveto
            -52 7 rmoveto
            -98 -17 -89 -84 -94 hhcurveto
            -95 -60 84 98 17 hvcurveto
            99 16 91 72 90 hhcurveto
            90 67 -72 -99 -16 hvcurveto
            return
          </CharString>
          <CharString index="5">
            307 -86 callsubr
            -70 137 callsubr
            70 27 callsubr
            -193 -68 callsubr
            70 hlineto
            172 callsubr
            -70 -100 callsubr
            193 -36 callgsubr
            return
          </CharString>
          <CharString index="6">
            2 13 -8 4 -10 5 -127 62 rcurveline
            -9 4 -6 0 0 vvcurveto
            -15 -14 125 callgsubr
            -1 -9 2 -10 18 -8 133 -64 rcurveline
            -1 3 2 -1 3 hhcurveto
            20 9 26 6 1 hvcurveto
            endchar
          </CharString>
          <CharString index="7">
            hlineto
            -12 -80 callgsubr
            107 callsubr
            return
          </CharString>
          <CharString index="8">
            47 callsubr
            -7 175 callgsubr
            15 -4 -7 10 hvcurveto
            7 -5 4 -10 -2 -12 rrcurveto
            0 -6 256 callgsubr
            -42 -22 -36 -27 -7 -42 rrcurveto
            return
          </CharString>
          <CharString index="9">
            19 -23 hhcurveto
            -26 -21 -21 -21 -3 105 callgsubr
            20 21 21 4 hvcurveto
            return
          </CharString>
          <CharString index="10">
            hlineto
            -12 -20 0 -23 -4 hvcurveto
            -21 -3 21 0 11 -30 callsubr
            21 0 11 hhcurveto
            return
          </CharString>
          <CharString index="11">
            61 callgsubr
            -3 -4 -6 -5 -1 -5 rrcurveto
            -6 -1 6 -8 8 hhcurveto
            16 51 252 callsubr
          </CharString>
          <CharString index="12">
            549 162 rmoveto
            13 78 -51 69 -86 19 -147 32 rcurveline
            -29 6 -74 32 12 69 rrcurveto
            55 9 69 56 93 hhcurveto
            114 39 -58 -74 1 hvcurveto
            -14 1 0 -12 22 hhcurveto
            27 3 18 15 3 hvcurveto
            22 136 122 callsubr
            -15 -5 -8 -51 -26 hvcurveto
            53 -53 -68 6 -40 hhcurveto
            -122 -94 -77 -82 -14 hvcurveto
            -8 -49 20 -35 19 -21 34 -37 34 -7 88 -20 44 -9 rcurveline
            63 -14 16 -3 30 -30 rrcurveto
            0 30 -32 -8 -48 vhcurveto
            -60 -10 -65 -65 -101 hhcurveto
            -59 -52 13 17 -27 hvcurveto
            -36 25 -14 27 6 50 rrcurveto
            11 2 15 -24 190 callsubr
            -3 vhcurveto
            -22 -136 rlineto
            -13 -2 -4 -20 22 hhcurveto
            15 6 10 return
          </CharString>
          <CharString index="13">
            rmoveto
            2 7 -2 6 -7 5 -112 77 rcurveline
            -6 4 -4 0 -8 -4 -136 -83 callsubr
            return
          </CharString>
          <CharString index="14">
            rmoveto
            24 4 -18 0 -13 hhcurveto
            -308 -47 callsubr
            255 callgsubr
            14 hhcurveto
            306 hlineto
            12 19 176 callsubr
          </CharString>
          <CharString index="15">
            177 callsubr
            10 -12 hhcurveto
            -4 -3 -1 -2 -5 hvcurveto
            -122 -67 -100 67 rlineto
            2 -3 -3 1 -4 hhcurveto
            -12 -11 -10 178 callgsubr
            -7 2 -6 7 -5 112 -77 rcurveline
            6 -4 4 0 8 4 136 77 rcurveline
            9 5 4 6 7 vvcurveto
            endchar
          </CharString>
          <CharString index="16">
            58 callgsubr
            hintmask 0001001001101000
            14 -19 -31 19 -45 hhcurveto
            -91 -82 -73 -83 -14 hvcurveto
            -7 -42 12 -32 15 -23 -19 -21 -11 -21 -5 -29 -5 -33 9 -24 11 -20 -89 -48 -11 -66 -2 -11 rrcurveto
            hintmask 1101000000010010
            -42 callgsubr
            hintmask 0010000000000000
            -10 17 3 26 0 vvcurveto
            hintmask 0000100000000000
            1 5 4 16 13 22 rrcurveto
            hintmask 0000010000001100
            -8 11 33 -22 48 hhcurveto
            90 83 69 87 14 hvcurveto
            hintmask 0000010100010010
            -43 callsubr
            hintmask 1100001001100100
            -45 callsubr
            hintmask 0000000000000001
            97 120 -4 -94 -16 hvcurveto
            return
          </CharString>
          <CharString index="17">
            517 212 rmoveto
            10 57 -12 54 -38 49 44 22 22 36 6 38 4 26 -2 33 -34 1 -25 -1 -20 -20 -4 -22 -3 -16 8 -16 25 -10 -24 -31 -11 -2 -24 -5 rrcurveto
            20 -35 -34 9 -37 hhcurveto
            -58 -61 -24 -42 -48 hvcurveto
            -48 -41 -33 -55 -10 -60 -9 -57 15 -56 34 -41 rrcurveto
            -40 34 53 -24 58 hhcurveto
            59 60 24 40 48 hvcurveto
            49 41 32 56 9 57 rrcurveto
            -50 10 rmoveto
            -8 -48 -25 -47 -38 -34 rrcurveto
            -34 -37 -45 -20 -46 hhcurveto
            -45 -39 20 34 -26 hvcurveto
            -27 34 -9 47 8 48 7 44 26 43 36 31 rrcurveto
            31 37 46 18 44 hhcurveto
            45 39 -18 -31 27 hvcurveto
            26 -31 11 -43 -7 -44 rrcurveto
            return
          </CharString>
          <CharString index="18">
            602 21 callsubr
            -26 -2 -17 -16 -3 236 callgsubr
            -348 137 callsubr
            90 hlineto
            12 20 9 callsubr
            -207 -89 callgsubr
            485 -11 callsubr
            return
          </CharString>
          <CharString index="19">
            22 callgsubr
            -25 hvcurveto
            -21 -14 -31 -21 -3 -15 rrcurveto
            -11 -69 callsubr
            33 16 15 hhcurveto
            13 8 -9 -29 26 hvcurveto
            -10 11 14 -8 19 hhcurveto
            return
          </CharString>
          <CharString index="20">
            -81 callsubr
            12 hhcurveto
            return
          </CharString>
          <CharString index="21">
            22 -78 callgsubr
            return
          </CharString>
          <CharString index="22">
            -67 callsubr
            22 3 117 callsubr
            return
          </CharString>
          <CharString index="23">
            155 64 20 8 6 235 callsubr
            endchar
          </CharString>
          <CharString index="24">
            -77 rcurveline
            -9 -5 -4 -6 -7 vvcurveto
            -11 -2 7 -10 12 hhcurveto
            4 3 1 2 5 hvcurveto
            122 67 100 -67 rlineto
            -2 3 3 -1 4 hhcurveto
            85 callsubr
            return
          </CharString>
          <CharString index="25">
            802 224 callgsubr
            -21 6 callgsubr
            56 hlineto
            -150 -341 rlineto
            -8 hlineto
            -39 356 rlineto
            14 -2 -3 16 -29 hhcurveto
            -25 -10 -10 -21 -10 hvcurveto
            -156 -355 rlineto
            -12 hlineto
            -37 341 rlineto
            56 hlineto
            11 22 0 22 3 hvcurveto
            23 4 -22 6 callgsubr
            42 hlineto
            36 -355 rlineto
            -30 4 16 0 23 hhcurveto
            17 18 0 14 11 hvcurveto
            158 371 rlineto
            5 hlineto
            28 -342 rlineto
            -33 3 2 -10 37 hhcurveto
            20 17 0 28 13 hvcurveto
            157 357 rlineto
            42 121 callsubr
            return
          </CharString>
          <CharString index="26">
            -92 callgsubr
            20 0 return
          </CharString>
          <CharString index="27">
            hlineto
            -12 -65 callgsubr
            return
          </CharString>
          <CharString index="28">
            -20 callsubr
            147 callgsubr
            156 hlineto
            61 48 -13 -11 21 hvcurveto
            41 -26 -1 -13 -12 -68 -9 -59 -5 -27 20 -35 rrcurveto
            -25 15 31 -17 39 hhcurveto
            67 49 53 46 8 hvcurveto
            -124 359 rmoveto
            -68 -12 -120 -51 -116 hhcurveto
            -149 hlineto
            return
          </CharString>
          <CharString index="29">
            -28 callsubr
            -21 -3 return
          </CharString>
          <CharString index="30">
            22 -72 callgsubr
            return
          </CharString>
          <CharString index="31">
            -20 -50 callgsubr
            return
          </CharString>
          <CharString index="32">
            20 -88 callgsubr
            return
          </CharString>
          <CharString index="33">
            25 callsubr
            13 -18 -19 -99 callsubr
            return
          </CharString>
          <CharString index="34">
            60 10 2 13 26 callgsubr
            64 hlineto
            -57 -337 rlineto
            -64 -72 callsubr
            207 29 callgsubr
            -90 hlineto
            24 140 rlineto
            return
          </CharString>
          <CharString index="35">
            hlineto
            -13 -19 -87 callsubr
            return
          </CharString>
          <CharString index="36">
            802 654 rmoveto
            5 27 -4 32 -33 1 -25 189 callsubr
            -16 6 -15 22 -13 rrcurveto
            -17 -20 -19 0 -11 225 callsubr
            -7 -14 -9 -2 hvcurveto
            -10 -1 6 -11 11 hhcurveto
            77 hlineto
            -61 -366 -8 -45 -26 -43 -39 -30 rlinecurve
            -33 -41 -48 -17 -49 hhcurveto
            -49 -44 17 33 -29 hvcurveto
            -29 30 -12 43 8 45 61 366 rcurveline
            77 hlineto
            11 8 11 10 3 hvcurveto
            9 2 -3 14 -14 hhcurveto
            return
          </CharString>
          <CharString index="37">
            25 callsubr
            13 -17 -20 -99 callsubr
            return
          </CharString>
          <CharString index="38">
            -12 callgsubr
            6 4 5 6 hvcurveto
            31 38 return
          </CharString>
          <CharString index="39">
            -80 callsubr
            107 callsubr
            return
          </CharString>
          <CharString index="40">
            12 -75 callsubr
            return
          </CharString>
          <CharString index="41">
            -44 callgsubr
            114 callsubr
            return
          </CharString>
          <CharString index="42">
            424 33 rmoveto
            10 60 104 callgsubr
            -9 -49 rlineto
            -263 hlineto
            367 339 3 5 1 7 1 4 rlinecurve
            27 4 -17 0 -16 hhcurveto
            -302 hlineto
            -26 -7 -7 -26 -4 hvcurveto
            -8 -48 rlineto
            -15 -3 -3 -18 25 159 callgsubr
            6 36 rlineto
            245 hlineto
            -368 -338 rlineto
            -2 -5 -2 -7 -4 vvcurveto
            -27 -5 17 0 16 hhcurveto
            322 hlineto
            26 6 7 26 5 hvcurveto
            return
          </CharString>
          <CharString index="43">
            hlineto
            -85 callsubr
            return
          </CharString>
          <CharString index="44">
            -49 callgsubr
            -19 0 -13 hhcurveto
            return
          </CharString>
          <CharString index="45">
            0 -22 -3 hvcurveto
            return
          </CharString>
          <CharString index="46">
            -51 callsubr
            -65 hlineto
            return
          </CharString>
          <CharString index="47">
            -107 callsubr
            76 209 rmoveto
            3 21 -7 253 callgsubr
            hintmask 0000011001000000
            -54 callgsubr
            hintmask 0000100010000000
            -43 -22 -35 -27 -7 -42 rrcurveto
            hintmask 0000000100000000
            -4 -19 rlineto
            hintmask 0000100001000000
            135 callsubr
            hintmask 0000000100000000
            135 callgsubr
            hintmask 0000100010000000
            31 callsubr
          </CharString>
          <CharString index="48">
            22 4 hvcurveto
            return
          </CharString>
          <CharString index="49">
            -97 callsubr
            182 hlineto
            return
          </CharString>
          <CharString index="50">
            662 306 rmoveto
            168 28 -114 137 -168 hhcurveto
            -169 -160 -137 -168 -28 hvcurveto
            -169 -28 114 -137 169 hhcurveto
            168 160 137 136 callgsubr
            -40 hmoveto
            -147 -24 -139 -119 -146 hhcurveto
            -147 -99 119 147 24 hvcurveto
            146 24 139 119 147 hhcurveto
            146 99 -119 -146 -24 hvcurveto
            return
          </CharString>
          <CharString index="51">
            16 15 hhcurveto
            13 9 -9 -29 26 hvcurveto
            -10 10 15 -8 19 hhcurveto
            return
          </CharString>
          <CharString index="52">
            23 4 -21 0 -12 hhcurveto
            -160 -56 callgsubr
            return
          </CharString>
          <CharString index="53">
            364 120 rmoveto
            14 2 3 17 -27 hhcurveto
            -25 -2 -16 -14 -3 hvcurveto
            -58 -9 -38 -25 -29 hhcurveto
            -58 8 60 26 5 hvcurveto
            43 257 rlineto
            124 38 callsubr
            return
          </CharString>
          <CharString index="54">
            23 -33 callsubr
            return
          </CharString>
          <CharString index="55">
            -3 callgsubr
            -4 return
          </CharString>
          <CharString index="56">
            62 callsubr
            12 -17 callgsubr
            return
          </CharString>
          <CharString index="57">
            rmoveto
            75 12 -108 0 -64 hhcurveto
            -64 -108 0 -75 -12 hvcurveto
            -14 -3 7 -9 15 hhcurveto
            11 6 6 6 4 hvcurveto
            34 13 76 5 47 hhcurveto
            48 73 -5 -34 3 hvcurveto
            -6 2 4 -6 11 hhcurveto
            14 10 9 14 3 hvcurveto
            endchar
          </CharString>
          <CharString index="58">
            263 190 callgsubr
            -20 0 -13 hhcurveto
            -54 7 callsubr
            return
          </CharString>
          <CharString index="59">
            539 190 callgsubr
            124 callsubr
            -39 hlineto
            -134 211 165 126 rlineto
            41 96 callsubr
            20 0 12 hhcurveto
            66 hlineto
            -242 -188 64 385 rlineto
            25 5 -7 8 -27 hhcurveto
            -72 hlineto
            -13 -19 62 callsubr
            12 hhcurveto
            62 hlineto
            172 callsubr
            -62 -72 callsubr
            169 hlineto
            11 -75 callsubr
            55 callgsubr
            -12 hhcurveto
            -62 hlineto
            16 96 112 87 116 -183 rlineto
            -37 hlineto
            -12 -20 0 -21 -3 hvcurveto
            -23 -4 133 callgsubr
            130 83 callsubr
            return
          </CharString>
          <CharString index="60">
            hlineto
            -12 -19 -28 callsubr
            return
          </CharString>
          <CharString index="61">
            106 callgsubr
            24 hvcurveto
            22 14 31 21 102 callgsubr
          </CharString>
          <CharString index="62">
            64 11 58 49 58 hhcurveto
            61 38 -52 -60 -10 hvcurveto
            50 -370 rmoveto
            -48 -8 -89 -51 -109 hhcurveto
            -109 -73 51 48 8 hvcurveto
            4 21 16 36 41 23 rrcurveto
            17 30 9 1 79 hhcurveto
            return
          </CharString>
          <CharString index="63">
            hlineto
            -11 -22 -22 callsubr
            60 callsubr
            return
          </CharString>
          <CharString index="64">
            5 29 -4 29 -16 35 35 18 26 4 23 2 rrcurveto
            -29 2 17 -6 8 hhcurveto
            14 19 9 24 4 hvcurveto
            -186 -115 rmoveto
            -64 -11 -57 -49 -59 hhcurveto
            -61 -38 52 60 10 hvcurveto
            return
          </CharString>
          <CharString index="65">
            779 300 rmoveto
            171 29 -121 140 -177 hhcurveto
            -331 hlineto
            -13 -19 0 -23 -4 hvcurveto
            -21 -3 20 0 12 hhcurveto
            65 hlineto
            -88 -523 100 callsubr
            88 523 218 callgsubr
            return
          </CharString>
          <CharString index="66">
            -30 callgsubr
            32 191 rlineto
            return
          </CharString>
          <CharString index="67">
            106 callsubr
            hintmask 000000010000000000000000
            97 callsubr
            hintmask 000100100011010000000000
            14 -19 -31 19 -45 hhcurveto
            -91 -82 -73 -83 -14 hvcurveto
            -7 -42 12 -32 15 -23 -19 -21 -11 -21 -5 -29 -5 -33 9 -24 11 -20 -89 -48 -11 -66 -2 -11 rrcurveto
            hintmask 110100000000100100000000
            -42 callgsubr
            hintmask 001000000000000000000000
            -10 17 3 26 0 vvcurveto
            hintmask 000010000000000000000000
            1 5 4 16 13 22 rrcurveto
            hintmask 000001000000011000000000
            -8 11 33 -22 48 hhcurveto
            90 83 69 87 14 hvcurveto
            hintmask 000001010000100100000000
            -43 callsubr
            hintmask 110000100011001000000000
            -45 callsubr
            hintmask 000000000000000010000000
            97 120 -4 -94 -16 hvcurveto
            return
          </CharString>
          <CharString index="68">
            748 190 callgsubr
            87 callsubr
            -38 hlineto
            -222 316 291 207 110 callsubr
            -150 hlineto
            -11 -20 0 -22 -4 hvcurveto
            -22 -3 18 0 55 hhcurveto
            -452 -324 54 324 rlineto
            63 27 callsubr
            -169 hlineto
            -13 -19 62 callsubr
            12 hhcurveto
            63 hlineto
            return
          </CharString>
          <CharString index="69">
            -57 -337 -96 callgsubr
            return
          </CharString>
          <CharString index="70">
            -96 callgsubr
            183 hlineto
            11 return
          </CharString>
          <CharString index="71">
            hlineto
            12 20 55 callsubr
            return
          </CharString>
          <CharString index="72">
            420 0 44 145 44 62 177 callgsubr
            hstemhm
            192 52 241 53 35 53 235 52 -38 53 -19 52 -41 53 hintmask 0000000010000000
            913 21 callsubr
            -27 66 callgsubr
            hintmask 1011011100100000
            -14 -81 rlineto
            -323 hlineto
            42 251 rlineto
            170 241 callsubr
            25 3 18 15 3 hvcurveto
            16 96 -19 callsubr
            -25 hhcurveto
            -27 -2 -15 -44 -7 hvcurveto
            -170 hlineto
            38 228 rlineto
            294 hlineto
            hintmask 0000000001000000
            -11 -64 rlineto
            hintmask 0000000010000000
            -15 -3 -3 -18 25 hhcurveto
            hintmask 0000000001000000
            27 -10 callsubr
            hintmask 1101110000100000
            12 75 -14 callgsubr
            -520 hlineto
            -12 -21 -78 callsubr
            60 callsubr
            32 hlineto
            -317 -523 rlineto
            -55 49 callsubr
            164 -64 callsubr
            -52 hlineto
            88 145 rlineto
            230 hlineto
            -25 -145 rlineto
            -40 hlineto
            -12 -21 -92 callgsubr
            22 0 11 hhcurveto
            hintmask 1000000010000000
            437 hlineto
            hintmask 0101001100000000
            26 7 7 26 5 hvcurveto
            -396 200 rmoveto
            -211 hlineto
            204 334 rlineto
            63 hlineto
            endchar
          </CharString>
          <CharString index="73">
            -68 callsubr
            65 hlineto
            return
          </CharString>
          <CharString index="74">
            4 -76 callsubr
            return
          </CharString>
          <CharString index="75">
            33 rmoveto
            15 92 -19 callsubr
            return
          </CharString>
          <CharString index="76">
            537 -11 44 -33 65 callgsubr
            -33 44 hstemhm
            506 53 368 53 14 53 -20 53 hintmask 0111001100000000
            1032 21 callsubr
            14 callgsubr
            -386 hlineto
            42 251 rlineto
            247 hlineto
            -44 -7 -3 -15 86 callgsubr
            16 96 -19 callsubr
            -26 hhcurveto
            -27 -2 -15 -44 -7 hvcurveto
            -247 hlineto
            38 228 rlineto
            356 196 callgsubr
            hintmask 0000100010000000
            27 -10 callsubr
            12 75 rlineto
            hintmask 0001000000000000
            -23 callgsubr
            -405 hlineto
            -31 -61 7 0 hvcurveto
            hintmask 1000100000000000
            -32 4 -29 0 0 vvcurveto
            222 callgsubr
            131 -144 196 hhcurveto
            20 52 5 2 20 hvcurveto
            hintmask 0100010100000000
            2 17 29 2 19 hhcurveto
            435 hlineto
            hintmask 1000110000000000
            26 7 7 26 5 hvcurveto
            -447 273 rmoveto
            -19 -110 rlineto
            -129 -23 -17 -34 -110 hhcurveto
            -187 -94 142 142 24 hvcurveto
            131 22 137 130 188 hhcurveto
            111 6 -34 -131 -21 hvcurveto
            endchar
          </CharString>
          <CharString index="77">
            34 callgsubr
            -12 -80 callgsubr
            return
          </CharString>
          <CharString index="78">
            3 hvcurveto
            -53 callsubr
            return
          </CharString>
          <CharString index="79">
            0 -51 callgsubr
            return
          </CharString>
          <CharString index="80">
            -13 125 callgsubr
            -2 -12 7 -6 7 -6 63 -58 rcurveline
            -7 return
          </CharString>
          <CharString index="81">
            21 55 callsubr
            return
          </CharString>
          <CharString index="82">
            569 548 rmoveto
            15 3 -14 7 -8 hhcurveto
            -12 -5 -8 -7 -5 hvcurveto
            -105 -141 rlineto
            10 -23 -25 11 -40 hhcurveto
            -120 -111 -101 -121 -20 hvcurveto
            -10 -57 11 -64 55 -56 -93 -124 rcurveline
            -9 -11 -11 -17 -2 -7 rrcurveto
            -14 -2 14 -7 8 hhcurveto
            8 6 4 4 3 hvcurveto
            113 150 rlineto
            -18 38 30 -2 18 hhcurveto
            117 113 97 122 21 hvcurveto
            11 67 -21 61 -46 50 105 140 rcurveline
            7 10 1 7 0 vvcurveto
            -175 -171 rmoveto
            -227 -304 rlineto
            return
          </CharString>
          <CharString index="83">
            -6 44 157 43 -41 43 106 43 2 44 hstemhm
            71 53 16 73 -43 53 hintmask 10111010
            746 103 rmoveto
            20 4 -22 0 -4 hhcurveto
            -11 68 callgsubr
            -37 -65 -11 -78 -78 hvcurveto
            89 -40 -93 0 -28 hhcurveto
            -40 -97 0 -66 -11 hvcurveto
            hintmask 00000001
            -25 -5 15 -13 20 hhcurveto
            hintmask 11011110
            13 24 8 30 6 hvcurveto
            2 13 0 4 26 3 rrcurveto
            1 16 10 1 14 hhcurveto
            87 43 -40 -73 -13 hvcurveto
            -6 -40 -72 -2 -230 -7 -19 -117 rlinecurve
            -62 -11 51 -56 96 hhcurveto
            48 102 9 80 51 hvcurveto
            -76 53 67 -13 43 hhcurveto
            112 59 84 25 4 hvcurveto
            -30 137 rmoveto
            hintmask 10101101
            -270 hlineto
            96 34 76 55 65 hhcurveto
            80 23 -68 -83 -8 hvcurveto
            -339 -118 rmoveto
            -3 -18 -5 -30 -53 -20 rrcurveto
            -15 -38 -43 -1 -12 hhcurveto
            -67 -39 34 41 7 hvcurveto
            7 40 85 22 18 5 rrcurveto
            hintmask 01000000
            48 11 43 2 61 2 rrcurveto
            endchar
          </CharString>
          <CharString index="84">
            551 -94 callgsubr
            return
          </CharString>
          <CharString index="85">
            0 -22 80 callsubr
            return
          </CharString>
          <CharString index="86">
            11 2 -10 71 callsubr
            25 20 20 23 4 hvcurveto
            5 1 5 37 -54 hhcurveto
            10 60 40 28 23 16 5 4 6 5 1 7 rrcurveto
            return
          </CharString>
          <CharString index="87">
            -85 callsubr
            -64 hlineto
            return
          </CharString>
          <CharString index="88">
            rlineto
            74 callsubr
            return
          </CharString>
          <CharString index="89">
            -39 -239 rlineto
            -57 -10 -67 -45 -78 hhcurveto
            -41 -25 4 13 -19 hvcurveto
            -10 9 -7 17 3 22 51 301 rcurveline
            11 1 -7 9 -10 225 callsubr
            -9 -11 -13 -2 hvcurveto
            return
          </CharString>
          <CharString index="90">
            rmoveto
            23 4 -16 19 -23 hhcurveto
            -26 -20 -21 -21 -4 105 callgsubr
            21 21 -1 callgsubr
            endchar
          </CharString>
          <CharString index="91">
            3 19 3 18 19 21 38 19 rlinecurve
            19 9 return
          </CharString>
          <CharString index="92">
            13 callsubr
            hintmask 00100100
            -102 callgsubr
            hintmask 00010000
            -46 callsubr
          </CharString>
          <CharString index="93">
            hstemhm
            hintmask 11100000
            -104 callsubr
            hintmask 00010000
            return
          </CharString>
          <CharString index="94">
            hstemhm
            hintmask 10110000
            477 -151 rmoveto
            -7 callgsubr
            47 51 41 66 35 rrcurveto
            24 19 0 23 4 hvcurveto
            21 -72 callgsubr
            -41 -9 5 7 -14 hvcurveto
            38 228 rlineto
            72 12 -41 79 -135 hhcurveto
            -40 -97 0 -66 -11 hvcurveto
            -25 -5 15 -13 20 hhcurveto
            14 23 8 30 6 hvcurveto
            19 3 26 3 39 hhcurveto
            81 49 -36 -88 -14 hvcurveto
            -189 -3 -120 -51 -15 -90 rrcurveto
            hintmask 11000000
            -68 -12 52 -61 94 hhcurveto
            65 53 19 24 38 hvcurveto
            8 -18 9 -5 26 -11 -59 -34 -46 -44 -7 -46 6 callsubr
            -104 280 139 callsubr
            return
          </CharString>
          <CharString index="95">
            84 callgsubr
            12 hhcurveto
            return
          </CharString>
          <CharString index="96">
            hlineto
            27 6 7 26 5 hvcurveto
            return
          </CharString>
          <CharString index="97">
            3 17 16 3 hvcurveto
            return
          </CharString>
          <CharString index="98">
            -10 -58 18 -54 36 -39 rrcurveto
            -41 39 55 -20 62 hhcurveto
            62 63 20 48 61 hvcurveto
            45 38 31 51 10 55 59 359 rcurveline
            51 14 37 36 7 44 rrcurveto
            return
          </CharString>
          <CharString index="99">
            0 140 callsubr
            hstem
            126 52 537 52 vstem
            717 33 rmoveto
            4 27 rlineto
            11 2 4 22 -20 hhcurveto
            -19 -4 -23 -26 -5 hvcurveto
            -154 hlineto
            20 52 21 30 70 75 56 60 62 68 13 80 rrcurveto
            121 20 -126 92 -178 hhcurveto
            -182 -155 -93 -120 -20 hvcurveto
            -13 -81 40 -67 36 -61 43 -71 12 -33 2 -52 rrcurveto
            -154 hlineto
            26 5 4 23 -19 hhcurveto
            -20 -4 -22 -11 -2 hvcurveto
            -4 -27 rlineto
            -27 -5 6 -6 26 hhcurveto
            174 hlineto
            14 18 0 26 4 hvcurveto
            13 76 -42 73 -28 50 -33 59 -32 59 11 66 rrcurveto
            89 15 129 80 152 hhcurveto
            156 100 -81 -88 -15 hvcurveto
            -11 -66 -52 -59 -52 -59 -45 -49 -66 -77 -13 -73 rrcurveto
            -26 -4 18 0 15 hhcurveto
            174 hlineto
            26 7 7 26 5 hvcurveto
            endchar
          </CharString>
          <CharString index="100">
            -99 callsubr
            hintmask 0010000100000000
            -34 callgsubr
            hintmask 0010000011000000
            -16 callsubr
            return
          </CharString>
          <CharString index="101">
            -232 -3 callsubr
            return
          </CharString>
          <CharString index="102">
            -25 -20 -21 -22 -4 hvcurveto
            -3 -15 7 -14 24 -15 rrcurveto
            -18 -29 -17 2 -12 hhcurveto
            -111 hlineto
            -12 127 callsubr
            10 hhcurveto
            return
          </CharString>
          <CharString index="103">
            12 114 -21 425 -20 hstem
            258 50 10 50 vstem
            488 211 rmoveto
            2 10 -5 6 -2 3 -127 75 rcurveline
            138 69 10 6 13 6 3 14 rlinecurve
            3 3 20 -29 1 vhcurveto
            -155 -81 12 44 12 68 5 29 rlinecurve
            7 1 4 27 -25 hhcurveto
            -25 -4 -27 -7 -1 hvcurveto
            -5 -29 -10 -68 -4 -44 -125 80 rcurveline
            1 -2 -2 1 -3 hhcurveto
            -15 -12 -14 -11 -2 hvcurveto
            -3 -14 10 -5 9 -6 116 -69 rcurveline
            -138 -69 -10 -6 -13 -6 -3 -14 rlinecurve
            -3 -3 -20 29 -1 vhcurveto
            155 81 -12 -44 -12 -68 -5 -29 rlinecurve
            -7 -1 -4 -27 25 hhcurveto
            25 4 27 7 1 hvcurveto
            5 29 10 68 4 45 102 -67 rcurveline
            -15 21 2 -1 7 hhcurveto
            15 12 14 11 2 hvcurveto
            endchar
          </CharString>
          <CharString index="104">
            529 -94 callgsubr
            return
          </CharString>
          <CharString index="105">
            39 -2 25 155 callsubr
            -26 -24 -110 hhcurveto
            -26 -23 -28 callsubr
            -17 -3 14 -5 8 hhcurveto
            82 128 0 94 16 hvcurveto
            return
          </CharString>
          <CharString index="106">
            304 -6 44 159 43 151 44 hstem
            806 103 rmoveto
            20 4 -22 0 -5 hhcurveto
            -10 68 callgsubr
            -70 -72 -40 -72 -55 hvcurveto
            76 -37 -61 36 -71 hhcurveto
            -117 -114 -98 -123 -20 hvcurveto
            -122 -21 81 -98 117 hhcurveto
            79 72 43 70 57 hvcurveto
            -50 23 53 -63 98 hhcurveto
            112 59 84 25 4 hvcurveto
            -30 137 rmoveto
            -270 hlineto
            96 34 76 55 65 hhcurveto
            80 23 -68 -83 -8 hvcurveto
            -327 -20 rmoveto
            -100 -17 -87 -82 -89 hhcurveto
            -88 -59 82 100 17 hvcurveto
            99 16 87 72 86 hhcurveto
            87 63 -72 -99 -16 hvcurveto
            endchar
          </CharString>
          <CharString index="107">
            rlineto
            -19 callgsubr
            26 -10 callsubr
            return
          </CharString>
          <CharString index="108">
            216 214 callsubr
            375 52 vstem
            697 163 rmoveto
            11 66 -21 64 -151 27 115 27 54 42 12 72 rrcurveto
            79 13 -87 71 -131 hhcurveto
            -332 hlineto
            -13 -19 62 callsubr
            12 hhcurveto
            64 hlineto
            172 callsubr
            -64 -72 callsubr
            361 hlineto
            134 110 78 85 14 hvcurveto
            -32 297 rmoveto
            -61 -10 -94 -59 -129 hhcurveto
            -180 hlineto
            38 227 rlineto
            213 hlineto
            106 65 -53 -54 -9 hvcurveto
            -20 -295 rmoveto
            -68 -12 -104 -53 -112 hhcurveto
            -215 hlineto
            42 252 rlineto
            192 hlineto
            129 91 -63 -68 -11 hvcurveto
            endchar
          </CharString>
          <CharString index="109">
            -74 -64 -11 hvcurveto
            -67 -11 -72 -70 -100 hhcurveto
            -44 -81 13 58 -23 hvcurveto
            11 9 7 5 2 16 rrcurveto
            20 4 -14 16 -20 hhcurveto
            -19 -20 -13 -26 -4 hvcurveto
            -88 -15 87 -54 121 hhcurveto
            129 99 89 92 15 hvcurveto
            endchar
          </CharString>
          <CharString index="110">
            170 rmoveto
            12 70 -36 57 -74 36 76 45 36 56 9 52 rrcurveto
            72 12 -61 64 -112 hhcurveto
            -117 -77 -44 -67 -11 hvcurveto
            -27 -4 18 -12 17 185 callsubr
            11 -4 8 -6 9 rrcurveto
            40 46 77 1 10 hhcurveto
            76 48 -42 -51 -8 hvcurveto
            -6 -33 -23 -39 -34 -25 -40 -28 -27 -2 -40 -3 -50 -3 -15 -1 -4 -20 rrcurveto
            -23 -4 133 callgsubr
            47 hlineto
            hintmask 10010100
            109 43 2 callsubr
          </CharString>
          <CharString index="111">
            -103 callgsubr
            23 144 -26 callgsubr
            -8 -6 -5 -4 -5 hvcurveto
            -31 -38 -33 -17 -15 hhcurveto
            -13 -9 10 29 -26 141 callgsubr
            5 4 5 6 hvcurveto
            31 38 33 -56 callsubr
            26 29 16 16 25 hvcurveto
            21 14 32 21 2 14 rrcurveto
            endchar
          </CharString>
          <CharString index="112">
            hstemhm
            hintmask 11000000
            -103 callsubr
            hintmask 00100000
            return
          </CharString>
          <CharString index="113">
            rrcurveto
            -40 -7 26 -48 59 hhcurveto
            36 40 25 33 30 hvcurveto
            return
          </CharString>
          <CharString index="114">
            60 callgsubr
            -4 9 -27 hhcurveto
            return
          </CharString>
          <CharString index="115">
            -16 callsubr
            17 149 callgsubr
          </CharString>
          <CharString index="116">
            0 21 -29 callsubr
            return
          </CharString>
          <CharString index="117">
            307 -86 callsubr
            -70 137 callsubr
            70 27 callsubr
            -193 -68 callsubr
            70 hlineto
            172 callsubr
            -70 -100 callsubr
            103 hlineto
            -61 -42 -22 -39 -6 -40 6 callsubr
            5 6 -1 13 -4 5 -6 3 -15 -3 -5 -4 rrcurveto
            -18 -16 -31 61 callsubr
            9 52 40 47 50 24 rrcurveto
            39 -36 callgsubr
            return
          </CharString>
          <CharString index="118">
            rmoveto
            240 40 -96 70 -95 hhcurveto
            -109 -114 -81 -120 -20 hvcurveto
            -112 -18 71 -87 109 hhcurveto
            51 54 16 57 71 hvcurveto
            -157 -38 -102 -105 -103 hhcurveto
            -10 -41 2 23 -27 hvcurveto
            return
          </CharString>
          <CharString index="119">
            11 callgsubr
            hintmask 1000010010000000
            -96 -16 78 -85 123 hhcurveto
            124 105 85 96 16 hvcurveto
            -17 296 rmoveto
            hintmask 1111101001000000
            -63 -11 -75 -49 -81 hhcurveto
            -81 -59 50 62 11 hvcurveto
            57 9 69 55 88 hhcurveto
            86 53 -55 -57 -9 hvcurveto
            -34 -295 rmoveto
            -76 -13 -82 -62 -91 hhcurveto
            -91 -62 62 76 13 hvcurveto
            hintmask 0100000110000000
            67 11 74 68 100 hhcurveto
            101 51 -68 -67 -11 hvcurveto
            endchar
          </CharString>
          <CharString index="120">
            -26 callgsubr
            hintmask 00001000
            -86 callgsubr
            return
          </CharString>
          <CharString index="121">
            312 11 callsubr
            hintmask 10101010
            12 12 5 5 2 14 204 callgsubr
            -21 -20 -15 -24 -4 hvcurveto
            -31 -5 8 -66 123 hhcurveto
            131 143 125 198 33 hvcurveto
            -49 80 rmoveto
            -61 -10 -69 -64 -91 hhcurveto
            hintmask 00010110
            -89 -47 73 81 13 hvcurveto
            96 16 88 61 79 hhcurveto
            48 27 -25 -23 14 hvcurveto
            27 -43 2 -52 -8 -43 rrcurveto
            endchar
          </CharString>
          <CharString index="122">
            196 -78 callgsubr
            -90 hlineto
            62 372 rlineto
            27 5 -4 6 -28 hhcurveto
            -29 hlineto
            -20 -4 0 -17 -14 hvcurveto
            -296 -369 -10 -11 -1 -2 -3 -18 rlinecurve
            -26 -4 6 -6 25 hhcurveto
            hintmask 01001000
            269 hlineto
            hintmask 10010010
            -22 -130 rlineto
            -73 hlineto
            -12 -20 -87 callsubr
            185 -64 callsubr
            -73 hlineto
            hintmask 01101010
            22 130 rlineto
            90 -36 callgsubr
            -158 22 rmoveto
            -255 hlineto
            291 361 rlineto
            25 hlineto
            hintmask 01000100
            endchar
          </CharString>
          <CharString index="123">
            -4 rmoveto
            100 17 -60 96 -116 hhcurveto
            -34 -45 -7 -29 -59 hvcurveto
            37 221 rlineto
            256 hlineto
            12 20 9 callsubr
            -277 hlineto
            -27 -6 -7 -26 -4 hvcurveto
            -46 -274 rlineto
            -14 -2 -3 -19 24 hhcurveto
            10 5 2 5 5 hvcurveto
            40 40 48 20 63 hhcurveto
            91 36 -80 -72 -12 hvcurveto
            -87 -14 -89 -66 -91 hhcurveto
            -31 -70 9 67 -22 hvcurveto
            10 9 8 6 3 16 rrcurveto
            24 4 -17 13 -17 hhcurveto
            -12 -27 -8 -32 -5 hvcurveto
            -81 -13 71 -67 110 hhcurveto
            123 113 88 109 18 hvcurveto
            endchar
          </CharString>
          <CharString index="124">
            67 callgsubr
            27 3 17 16 3 hvcurveto
            return
          </CharString>
          <CharString index="125">
            808 305 rmoveto
            14 86 -24 81 -67 69 -20 18 rcurveline
            43 24 21 35 6 35 4 27 -2 33 -34 1 return
          </CharString>
          <CharString index="126">
            rlineto
            29 callsubr
            return
          </CharString>
          <CharString index="127">
            -16 callsubr
            16 19 4 22 rrcurveto
            endchar
          </CharString>
          <CharString index="128">
            -32 callsubr
            -26 hhcurveto
            return
          </CharString>
          <CharString index="129">
            rmoveto
            42 7 -15 17 -21 hhcurveto
            return
          </CharString>
          <CharString index="130">
            30 rmoveto
            3 17 rlineto
            15 2 0 14 -23 hhcurveto
            -19 -9 -7 -25 -5 hvcurveto
            -257 hlineto
            223 108 67 32 51 43 11 68 rlinecurve
            108 18 -115 34 -104 hhcurveto
            -65 -120 -11 -92 -15 hvcurveto
            -22 -4 12 -16 20 hhcurveto
            18 16 15 16 6 hvcurveto
            1 8 -1 21 0 vvcurveto
            33 18 98 4 9 hhcurveto
            69 99 -21 -78 -13 hvcurveto
            -9 -54 -54 -32 -45 -24 -288 -141 rcurveline
            -8 -5 -6 -6 -1 -10 rrcurveto
            -22 -4 17 0 13 hhcurveto
            358 hlineto
            21 11 7 23 4 hvcurveto
            endchar
          </CharString>
          <CharString index="131">
            213 rmoveto
            10 61 -1 62 -34 45 rrcurveto
            42 -32 -57 14 -58 hhcurveto
            -58 -61 -14 -42 -46 hvcurveto
            -50 -45 -21 -62 -10 -61 -11 -61 1 -62 35 -45 rrcurveto
            -42 32 56 -14 58 hhcurveto
            58 62 14 42 46 hvcurveto
            49 45 21 62 11 61 rrcurveto
            -52 hmoveto
            -8 -48 -17 -50 -38 -37 rrcurveto
            -33 -33 -47 -12 -44 hhcurveto
            -44 -43 12 33 -23 hvcurveto
            -26 37 1 50 8 48 8 48 16 50 38 37 rrcurveto
            33 34 47 12 44 hhcurveto
            44 43 -12 -33 22 hvcurveto
            26 -37 0 -50 -8 -48 rrcurveto
            endchar
          </CharString>
          <CharString index="132">
            rmoveto
            4 21 -8 253 callgsubr
            return
          </CharString>
          <CharString index="133">
            -18 -19 -18 -3 hvcurveto
            -20 -3 15 -17 return
          </CharString>
          <CharString index="134">
            hlineto
            11 21 9 callsubr
            return
          </CharString>
          <CharString index="135">
            hlineto
            -13 41 callsubr
            return
          </CharString>
          <CharString index="136">
            65 50 callsubr
            return
          </CharString>
          <CharString index="137">
            -32 callgsubr
            endchar
          </CharString>
          <CharString index="138">
            4 19 3 18 18 115 callgsubr
            4 22 rrcurveto
            endchar
          </CharString>
          <CharString index="139">
            172 callsubr
            -63 52 callsubr
            -63 hlineto
            return
          </CharString>
          <CharString index="140">
            -46 -6 44 159 43 151 44 return
          </CharString>
          <CharString index="141">
            -46 -6 44 151 43 159 44 hstem
            470 214 rmoveto
            122 20 -81 99 -125 hhcurveto
            -123 -61 -84 -25 -5 hvcurveto
            -20 -3 22 0 5 hhcurveto
            10 8 1 11 7 hvcurveto
            59 35 55 14 36 hhcurveto
            81 68 -59 -100 1 hvcurveto
            -308 hlineto
            -17 -15 0 -29 -5 hvcurveto
            -117 -20 49 -92 122 hhcurveto
            116 108 101 119 20 hvcurveto
            -58 -25 rmoveto
            -93 -33 -74 -58 -72 hhcurveto
            -56 -61 27 124 11 hvcurveto
            endchar
          </CharString>
          <CharString index="142">
            -2 9 -12 12 hhcurveto
            return
          </CharString>
          <CharString index="143">
            -1 rmoveto
            54 9 -20 30 -33 hhcurveto
            -25 -20 197 callsubr
            -5 -4 -5 -5 -1 -8 rrcurveto
            -10 -2 10 -12 225 callgsubr
            85 14 hvcurveto
            210 hmoveto
            54 9 -20 30 -33 hhcurveto
            -24 -21 -19 -23 -4 hvcurveto
            -1 -5 -5 -35 54 -2 -10 -61 -40 -27 163 callsubr
            endchar
          </CharString>
          <CharString index="144">
            62 hlineto
            -44 -264 rlineto
            -97 -17 60 -26 45 hhcurveto
            64 63 52 74 12 hvcurveto
            return
          </CharString>
          <CharString index="145">
            hlineto
            11 21 0 22 -29 callsubr
            return
          </CharString>
          <CharString index="146">
            668 60 rmoveto
            18 18 -16 20 -5 6 -169 202 rcurveline
            237 202 7 7 24 21 -17 20 rlinecurve
            -16 15 -23 -19 -7 -6 -236 -203 rcurveline
            -168 203 -6 6 -17 21 -24 -21 rlinecurve
            -18 -18 16 -19 5 -7 169 -202 rcurveline
            -237 -202 -7 -7 -24 -21 17 -20 rlinecurve
            16 -15 22 19 8 6 236 203 rcurveline
            168 -203 6 -6 18 -21 23 21 rlinecurve
            return
          </CharString>
          <CharString index="147">
            103 callsubr
            -531 -588 -5 -6 -8 -6 -1 -7 rlinecurve
            -14 -3 2 -10 15 hhcurveto
            9 7 5 6 6 hvcurveto
            531 587 211 callgsubr
            rlinecurve
            return
          </CharString>
          <CharString index="148">
            -20 193 callsubr
            return
          </CharString>
          <CharString index="149">
            rmoveto
            16 2 142 callgsubr
            -9 -4 -3 110 callgsubr
            2 9 rlinecurve
            endchar
          </CharString>
          <CharString index="150">
            -47 52 -4 50 7 38 rrcurveto
            98 16 92 80 96 hhcurveto
            30 7 -3 -11 30 hvcurveto
            79 -164 rmoveto
            -98 -17 -92 -77 -96 hhcurveto
            -29 -6 2 10 -30 hvcurveto
            225 303 46 -47 5 -54 -6 -39 rlinecurve
            return
          </CharString>
          <CharString index="151">
            54 hlineto
            -57 -337 -27 callgsubr
            return
          </CharString>
          <CharString index="152">
            398 rmoveto
            54 callgsubr
            -346 hlineto
            hintmask 01010000
            16 -3 -15 0 -6 hhcurveto
            -25 -3 -18 -14 -2 hvcurveto
            -8 -44 rlineto
            -15 -2 -3 -18 25 hhcurveto
            hintmask 10100000
            27 3 17 32 5 hvcurveto
            303 hlineto
            -225 -203 -72 -224 -19 -112 rrcurveto
            -12 -2 -5 -27 27 hhcurveto
            13 14 8 21 4 247 callsubr
            rrcurveto
            5 4 1 4 5 vvcurveto
            endchar
          </CharString>
          <CharString index="153">
            16 93 -19 callsubr
            -26 hhcurveto
            -27 -3 -17 -16 -2 hvcurveto
            return
          </CharString>
          <CharString index="154">
            4 -29 hhcurveto
            -43 -46 -29 -44 return
          </CharString>
          <CharString index="155">
            -46 -214 45 197 -20 hstem
            114 53 140 52 vstem
            359 -120 rmoveto
            8 50 -32 29 -50 14 rrcurveto
            38 7 3 17 -27 hhcurveto
            -26 -3 -17 -14 -3 hvcurveto
            -5 -34 171 callgsubr
            rlinecurve
            -2 callsubr
            endchar
          </CharString>
          <CharString index="156">
            hlineto
            -11 -22 0 -21 -52 callsubr
            69 callgsubr
            return
          </CharString>
          <CharString index="157">
            hlineto
            11 -26 callsubr
            return
          </CharString>
          <CharString index="158">
            187 callsubr
            -103 hlineto
            91 545 160 callsubr
            -21 hhcurveto
            -6 -3 -1 -3 -5 hvcurveto
            -59 -54 -65 -3 -24 -2 rrcurveto
            -11 -12 -6 -16 -2 hvcurveto
            -22 -4 21 0 6 hhcurveto
            28 44 8 23 48 hvcurveto
            -84 -502 rlineto
            -103 -72 callsubr
            258 -47 callgsubr
            endchar
          </CharString>
          <CharString index="159">
            -72 callsubr
            169 29 callgsubr
            return
          </CharString>
          <CharString index="160">
            70 -6 44 -38 80 callgsubr
            return
          </CharString>
          <CharString index="161">
            0 66 callsubr
            return
          </CharString>
          <CharString index="162">
            0 -1 callgsubr
            return
          </CharString>
          <CharString index="163">
            30 182 rlineto
            42 83 callsubr
            return
          </CharString>
          <CharString index="164">
            -207 hlineto
            -13 -9 -11 -12 -2 hvcurveto
            -11 -1 7 -10 11 hhcurveto
            77 hlineto
            return
          </CharString>
          <CharString index="165">
            -22 callsubr
            69 callgsubr
            return
          </CharString>
          <CharString index="166">
            305 rmoveto
            67 11 42 250 -209 hhcurveto
            -209 -42 -250 -66 -11 hvcurveto
            -67 -11 -42 -250 209 hhcurveto
            209 42 250 66 11 hvcurveto
            -50 10 rmoveto
            -57 -10 -41 -225 -153 hhcurveto
            -153 33 225 57 10 hvcurveto
            59 9 37 204 154 hhcurveto
            154 -31 -204 -59 -9 hvcurveto
            endchar
          </CharString>
          <CharString index="167">
            22 0 11 hhcurveto
            return
          </CharString>
          <CharString index="168">
            -23 -23 hhcurveto
            -23 -29 195 callgsubr
            return
          </CharString>
          <CharString index="169">
            -78 callsubr
            20 0 return
          </CharString>
          <CharString index="170">
            -25 -5 3 -8 28 -5 callgsubr
            -121 172 rmoveto
            return
          </CharString>
          <CharString index="171">
            67 callsubr
            73 66 callsubr
            return
          </CharString>
          <CharString index="172">
            37 -34 37 60 39 -37 37 return
          </CharString>
          <CharString index="173">
            44 523 44 return
          </CharString>
          <CharString index="174">
            -197 -21 165 -20 return
          </CharString>
          <CharString index="175">
            118 703 156 callsubr
            -118 -703 rlineto
            -10 -1 -5 -30 27 hhcurveto
            27 5 30 10 1 hvcurveto
            return
          </CharString>
          <CharString index="176">
            -11 -1 7 -9 10 hhcurveto
            111 hlineto
            11 10 10 11 3 hvcurveto
            return
          </CharString>
          <CharString index="177">
            -56 callgsubr
            42 hlineto
            return
          </CharString>
          <CharString index="178">
            12 -12 hhcurveto
            -21 -75 -58 -85 -14 hvcurveto
            -54 -9 20 -31 33 hhcurveto
            return
          </CharString>
          <CharString index="179">
            233 callgsubr
            523 44 return
          </CharString>
          <CharString index="180">
            90 callsubr
            hstemhm
            return
          </CharString>
          <CharString index="181">
            15 2 3 18 return
          </CharString>
          <CharString index="182">
            52 9 2 13 -32 hhcurveto
            -86 -47 callsubr
            -22 -3 130 callgsubr
            65 hlineto
            63 callgsubr
            32 191 rlineto
            return
          </CharString>
          <CharString index="183">
            25 5 -3 8 154 callgsubr
            -21 -3 20 0 12 hhcurveto
            65 hlineto
            return
          </CharString>
          <CharString index="184">
            304 74 callgsubr
            return
          </CharString>
          <CharString index="185">
            -4 -2 -1 -2 -4 hvcurveto
            -32 -40 -46 -2 -19 hhcurveto
            -5 -7 -5 -7 -1 hvcurveto
            -9 -2 12 -2 4 hhcurveto
            20 32 5 14 36 hvcurveto
            return
          </CharString>
          <CharString index="186">
            136 callsubr
            -22 return
          </CharString>
          <CharString index="187">
            -4 hvcurveto
            -23 -3 return
          </CharString>
          <CharString index="188">
            483 rmoveto
            79 13 -98 78 -133 hhcurveto
            -133 -124 -78 -79 -13 hvcurveto
            -16 -3 6 -11 19 hhcurveto
            6 10 8 4 4 hvcurveto
            105 64 97 20 59 hhcurveto
            68 82 -20 -105 28 hvcurveto
            -4 2 8 -8 6 hhcurveto
            19 10 11 16 3 hvcurveto
            endchar
          </CharString>
          <CharString index="189">
            193 149 -103 callgsubr
            return
          </CharString>
          <CharString index="190">
            hlineto
            11 22 -88 callgsubr
            return
          </CharString>
          <CharString index="191">
            88 523 rlineto
            return
          </CharString>
          <CharString index="192">
            12 11 10 11 2 hvcurveto
            return
          </CharString>
          <CharString index="193">
            -6 123 callgsubr
            return
          </CharString>
          <CharString index="194">
            -21 -50 callgsubr
            return
          </CharString>
          <CharString index="195">
            572 213 rmoveto
            119 19 -75 100 -118 hhcurveto
            -46 -55 -15 -52 -69 hvcurveto
            return
          </CharString>
          <CharString index="196">
            83 -5 47 hhcurveto
            130 91 87 86 14 hvcurveto
            return
          </CharString>
          <CharString index="197">
            -21 120 -20 return
          </CharString>
          <CharString index="198">
            167 callsubr
            169 callsubr
            return
          </CharString>
          <CharString index="199">
            304 -11 44 182 45 0 45 273 44 return
          </CharString>
          <CharString index="200">
            rmoveto
            24 4 -15 18 -24 hhcurveto
            -24 -21 -18 24 callgsubr
            return
          </CharString>
          <CharString index="201">
            9 -19 hhcurveto
            -26 return
          </CharString>
          <CharString index="202">
            -21 callsubr
            endchar
          </CharString>
          <CharString index="203">
            hlineto
            12 21 0 22 3 hvcurveto
            23 4 87 callsubr
            -169 hlineto
            -12 -20 -28 callsubr
            -22 -3 return
          </CharString>
          <CharString index="204">
            572 391 58 callgsubr
            return
          </CharString>
          <CharString index="205">
            0 -21 -52 callsubr
            20 0 12 hhcurveto
            return
          </CharString>
          <CharString index="206">
            9 -5 5 -7 7 -63 58 rcurveline
            7 return
          </CharString>
          <CharString index="207">
            -27 callgsubr
            331 hlineto
            179 165 136 164 27 hvcurveto
            -53 1 rmoveto
            -140 -23 -145 -117 -161 hhcurveto
            -196 hlineto
            return
          </CharString>
          <CharString index="208">
            44 545 44 return
          </CharString>
          <CharString index="209">
            hstemhm
            124 53 hintmask 00010000
            21 callgsubr
            return
          </CharString>
          <CharString index="210">
            rmoveto
            14 2 -1 9 -16 hhcurveto
            -8 -6 -4 -6 -6 hvcurveto
            return
          </CharString>
          <CharString index="211">
            0 98 callgsubr
            return
          </CharString>
          <CharString index="212">
            37 143 37 hstemhm
            return
          </CharString>
          <CharString index="213">
            -20 71 callgsubr
            return
          </CharString>
          <CharString index="214">
            21 0 11 hhcurveto
            return
          </CharString>
          <CharString index="215">
            865 193 callgsubr
            173 callgsubr
            96 16 -46 45 -87 hhcurveto
            -55 -59 -19 -62 -68 hvcurveto
            67 -19 -49 14 -51 hhcurveto
            -55 -52 -19 -52 -66 hvcurveto
            return
          </CharString>
          <CharString index="216">
            -2 callsubr
            8 50 -32 29 -50 14 return
          </CharString>
          <CharString index="217">
            rlineto
            42 38 callgsubr
            return
          </CharString>
          <CharString index="218">
            53 -46 53 -37 53 55 52 -52 53 return
          </CharString>
          <CharString index="219">
            -235 44 572 45 return
          </CharString>
          <CharString index="220">
            149 53 35 53 return
          </CharString>
          <CharString index="221">
            -77 callsubr
            -65 hlineto
            return
          </CharString>
          <CharString index="222">
            hvcurveto
            81 198 callgsubr
          </CharString>
          <CharString index="223">
            54 callsubr
            hstem
            return
          </CharString>
          <CharString index="224">
            -19 0 -13 hhcurveto
            return
          </CharString>
          <CharString index="225">
            810 306 rmoveto
            27 5 -31 -50 callgsubr
            -616 hlineto
            -12 -31 0 -27 -5 hvcurveto
            -27 -4 27 0 10 hhcurveto
            628 hlineto
            10 27 0 27 4 hvcurveto
            return
          </CharString>
          <CharString index="226">
            121 52 186 53 35 53 251 53 return
          </CharString>
          <CharString index="227">
            hvcurveto
            -23 -4 16 -19 23 hhcurveto
            return
          </CharString>
          <CharString index="228">
            184 callgsubr
            3 hvcurveto
            return
          </CharString>
          <CharString index="229">
            160 callsubr
            -22 hhcurveto
            return
          </CharString>
          <CharString index="230">
            332 54 -30 54 hintmask 0001000000000000
            741 139 rmoveto
            15 3 -10 12 -15 hhcurveto
            hintmask 1100000000010000
            -14 -15 -12 -15 -3 hvcurveto
            -53 -9 -46 -44 -50 hhcurveto
            return
          </CharString>
          <CharString index="231">
            -22 0 -11 hhcurveto
            return
          </CharString>
          <CharString index="232">
            -314 rlineto
            -39 hlineto
            -8 -11 0 -13 -2 hvcurveto
            -13 -2 12 0 7 hhcurveto
            102 hlineto
            6 13 0 13 2 hvcurveto
            13 2 -12 0 -7 hhcurveto
            -39 hlineto
            return
          </CharString>
          <CharString index="233">
            -47 callgsubr
            -77 callsubr
            return
          </CharString>
          <CharString index="234">
            -9 -11 -13 -2 hvcurveto
            -11 -1 6 -10 return
          </CharString>
          <CharString index="235">
            122 52 248 52 42 52 return
          </CharString>
          <CharString index="236">
            hlineto
            -6 -6 -5 -5 -3 hvcurveto
            -36 -74 -50 -67 -60 -56 -6 -6 -1 -8 4 -6 41 -56 28 -68 11 -73 rrcurveto
            -6 1 5 -4 6 hhcurveto
            return
          </CharString>
          <CharString index="237">
            11 5 3 4 2 7 rrcurveto
            11 1 -9 7 -13 hhcurveto
            -11 -13 -5 -14 -3 hvcurveto
            -52 -8 63 -31 85 hhcurveto
            91 69 52 53 9 hvcurveto
            return
          </CharString>
          <CharString index="238">
            -105 0 157 callsubr
            return
          </CharString>
          <CharString index="239">
            17 21 14 23 4 hvcurveto
            2 return
          </CharString>
          <CharString index="240">
            -169 -109 126 146 24 hvcurveto
            150 25 153 123 166 hhcurveto
            169 109 -126 -146 -24 hvcurveto
            return
          </CharString>
          <CharString index="241">
            47 callgsubr
            53 -21 return
          </CharString>
          <CharString index="242">
            -10 -1 6 -8 11 hhcurveto
            return
          </CharString>
          <CharString index="243">
            hlineto
            -12 -21 0 return
          </CharString>
          <CharString index="244">
            hlineto
            84 callsubr
            return
          </CharString>
          <CharString index="245">
            -29 7 -31 hhcurveto
            -79 -88 -19 -69 -11 hvcurveto
            -55 -10 53 -31 59 hhcurveto
            81 89 17 59 45 hvcurveto
            -37 69 72 -39 62 hhcurveto
            return
          </CharString>
          <CharString index="246">
            rmoveto
            -5 -26 -4 -27 -50 -21 rrcurveto
            -17 -40 -46 0 -7 hhcurveto
            -68 -36 41 44 8 hvcurveto
            7 47 77 49 180 6 rrcurveto
            return
          </CharString>
          <CharString index="247">
            44 534 44 return
          </CharString>
          <CharString index="248">
            41 18 46 hhcurveto
            66 55 -28 -60 -10 hvcurveto
            -7 -46 -43 -35 -58 -36 -183 -112 rcurveline
            -3 -3 -6 -12 0 vvcurveto
            return
          </CharString>
          <CharString index="249">
            67 callsubr
            73 80 callgsubr
            return
          </CharString>
          <CharString index="250">
            -11 44 266 45 0 45 189 44 hstemhm
            return
          </CharString>
          <CharString index="251">
            184 callsubr
            135 44 return
          </CharString>
          <CharString index="252">
            23 3 -15 19 -23 hhcurveto
            return
          </CharString>
          <CharString index="253">
            -206 84 116 return
          </CharString>
          <CharString index="254">
            42 93 callsubr
            return
          </CharString>
          <CharString index="255">
            183 callgsubr
            65 25 rlinecurve
            17 43 44 0 23 hhcurveto
            20 14 0 -3 27 hvcurveto
            -1 -16 1 -10 return
          </CharString>
          <CharString index="256">
            161 callgsubr
            -17 13 rrcurveto
            return
          </CharString>
          <CharString index="257">
            219 callgsubr
            -24 -4 15 -18 24 hhcurveto
            24 21 18 24 4 hvcurveto
            return
          </CharString>
          <CharString index="258">
            23 4 -16 19 -23 hhcurveto
            -26 -20 -21 -21 80 callsubr
            15 -19 23 hhcurveto
            26 21 21 -1 callgsubr
            return
          </CharString>
          <CharString index="259">
            779 300 rmoveto
            171 29 -121 140 -177 hhcurveto
            -331 hlineto
            -13 -19 -28 callsubr
            return
          </CharString>
          <CharString index="260">
            50 callgsubr
            41 -21 return
          </CharString>
          <CharString index="261">
            44 189 45 0 45 266 44 hstemhm
            return
          </CharString>
          <CharString index="262">
            -22 -5 -26 rrcurveto
            -27 -4 return
          </CharString>
          <CharString index="263">
            rlineto
            10 1 5 30 -27 hhcurveto
            -27 -5 -30 -10 -1 hvcurveto
            return
          </CharString>
          <CharString index="264">
            44 298 45 -6 45 -39 45 return
          </CharString>
          <CharString index="265">
            237 callgsubr
            227 44 return
          </CharString>
          <CharString index="266">
            39 5 37 -33 37 -25 37 return
          </CharString>
          <CharString index="267">
            rlineto
            138 callgsubr
            return
          </CharString>
          <CharString index="268">
            80 75 68 82 13 hvcurveto
            -414 -53 rmoveto
            -41 -33 -70 -3 -60 hhcurveto
            -31 -31 7 26 5 hvcurveto
            return
          </CharString>
          <CharString index="269">
            -124 hlineto
            hintmask 0001000100000000
            46 callsubr
            return
          </CharString>
          <CharString index="270">
            -24 -16 -4 -4 -5 -5 -1 -8 rrcurveto
            -10 -2 9 -12 225 callgsubr
            85 14 hvcurveto
            return
          </CharString>
          <CharString index="271">
            -12 callsubr
            65 hlineto
            -57 -337 rlineto
            return
          </CharString>
          <CharString index="272">
            11 -15 hhcurveto
            0 -6 0 -10 -4 vhcurveto
            -148 -62 return
          </CharString>
          <CharString index="273">
            233 callgsubr
            337 45 return
          </CharString>
          <CharString index="274">
            -16 -16 -25 hvcurveto
            -21 -14 -32 -21 -2 return
          </CharString>
          <CharString index="275">
            54 callsubr
            118 -20 hstemhm
            return
          </CharString>
          <CharString index="276">
            -15 rrcurveto
            -11 -12 callgsubr
            return
          </CharString>
          <CharString index="277">
            -11 44 273 48 224 44 hstemhm
            return
          </CharString>
          <CharString index="278">
            22 226 callsubr
            return
          </CharString>
          <CharString index="279">
            -88 -523 rlineto
            return
          </CharString>
          <CharString index="280">
            hvcurveto
            -10 -62 rlineto
            -52 28 callsubr
            53 hlineto
            return
          </CharString>
          <CharString index="281">
            hlineto
            -18 125 rlineto
            140 -170 rmoveto
            -76 -162 rlineto
            -20 hlineto
            -21 162 rlineto
            return
          </CharString>
          <CharString index="282">
            -13 -78 rlineto
            -54 hlineto
            -7 -13 -3 -11 -2 hvcurveto
            -9 -1 12 -3 7 hhcurveto
            134 hlineto
            return
          </CharString>
          <CharString index="283">
            -88 callgsubr
            endchar
          </CharString>
          <CharString index="284">
            rmoveto
            11 2 -7 return
          </CharString>
          <CharString index="285">
            6 6 1 8 -4 6 -42 56 -27 67 -11 74 rrcurveto
            5 -1 -5 5 -7 hhcurveto
            return
          </CharString>
          <CharString index="286">
            184 callsubr
            126 -20 hstemhm
            181 111 callsubr
            return
          </CharString>
          <CharString index="287">
            hhcurveto
            198 178 147 136 callgsubr
            return
          </CharString>
          <CharString index="288">
            -3 133 callgsubr
            65 hlineto
            return
          </CharString>
          <CharString index="289">
            383 85 143 -20 hstem
            return
          </CharString>
          <CharString index="290">
            156 39 49 39 return
          </CharString>
          <CharString index="291">
            44 343 45 return
          </CharString>
          <CharString index="292">
            hhcurveto
            132 callsubr
            return
          </CharString>
          <CharString index="293">
            47 51 37 58 47 38 37 hstemhm
            return
          </CharString>
          <CharString index="294">
            171 callsubr
            -13 hhcurveto
            return
          </CharString>
          <CharString index="295">
            hstemhm
            150 52 36 52 return
          </CharString>
          <CharString index="296">
            -1 -20 -20 -4 -21 -3 return
          </CharString>
          <CharString index="297">
            -27 -3 -18 -15 return
          </CharString>
          <CharString index="298">
            hlineto
            19 15 4 19 3 hvcurveto
            26 155 rmoveto
            23 4 -18 0 -18 hhcurveto
            return
          </CharString>
          <CharString index="299">
            207 126 callsubr
            -90 hlineto
            return
          </CharString>
          <CharString index="300">
            -28 callsubr
            -12 callsubr
            return
          </CharString>
          <CharString index="301">
            hvcurveto
            82 53 callgsubr
            return
          </CharString>
          <CharString index="302">
            -4 -2 -13 rlinecurve
            return
          </CharString>
          <CharString index="303">
            -8 -6 -22 hvcurveto
            -4 -1 -23 -5 -31 -3 8 42 8 33 7 15 return
          </CharString>
          <CharString index="304">
            -19 -51 callgsubr
            -1 -5 -5 -35 54 -2 232 callgsubr
            return
          </CharString>
          <CharString index="305">
            -3 -18 -6 -32 -14 -74 -97 -61 rlinecurve
            -37 -24 -22 -29 -6 -38 return
          </CharString>
          <CharString index="306">
            hvcurveto
            14 2 -11 0 -8 hhcurveto
            -59 hlineto
            -11 -15 0 -18 -11 hvcurveto
            return
          </CharString>
          <CharString index="307">
            218 callgsubr
            endchar
          </CharString>
          <CharString index="308">
            70 0 144 callsubr
            return
          </CharString>
          <CharString index="309">
            6 4 6 3 hvcurveto
            36 73 49 68 return
          </CharString>
          <CharString index="310">
            hstemhm
            128 callsubr
            return
          </CharString>
          <CharString index="311">
            54 callsubr
            32 74 return
          </CharString>
          <CharString index="312">
            44 305 44 185 44 return
          </CharString>
          <CharString index="313">
            hlineto
            -16 -24 -2 -21 -3 hvcurveto
            return
          </CharString>
          <CharString index="314">
            234 callsubr
            74 return
          </CharString>
          <CharString index="315">
            -20 -13 -26 -4 hvcurveto
            -61 -11 return
          </CharString>
          <CharString index="316">
            -20 155 callgsubr
            return
          </CharString>
          <CharString index="317">
            12 -6 45 350 45 return
          </CharString>
          <CharString index="318">
            10 212 callgsubr
            return
          </CharString>
          <CharString index="319">
            27 255 callsubr
            return
          </CharString>
          <CharString index="320">
            75 128 75 return
          </CharString>
          <CharString index="321">
            187 callgsubr
            hstem
            113 callsubr
            return
          </CharString>
          <CharString index="322">
            -11 callsubr
            endchar
          </CharString>
          <CharString index="323">
            -50 callgsubr
            -65 hlineto
            89 534 rlineto
            11 2 4 22 return
          </CharString>
          <CharString index="324">
            hlineto
            12 20 0 22 157 callgsubr
            return
          </CharString>
          <CharString index="325">
            537 80 -21 220 54 219 -20 hstem
            1047 return
          </CharString>
          <CharString index="326">
            -7 0 vvcurveto
            -14 -3 10 -13 15 hhcurveto
            18 7 14 10 return
          </CharString>
          <CharString index="327">
            98 0 40 76 26 327 26 76 40 hstemhm
            51 40 return
          </CharString>
          <CharString index="328">
            hlineto
            -4 -7 0 -7 -1 hvcurveto
            -7 -1 7 0 4 hhcurveto
            return
          </CharString>
          <CharString index="329">
            -221 -209 37 0 45 127 80 callgsubr
            return
          </CharString>
          <CharString index="330">
            144 callsubr
            hstemhm
            return
          </CharString>
          <CharString index="331">
            -21 118 -20 hstem
            return
          </CharString>
          <CharString index="332">
            hhcurveto
            -110 hlineto
            -14 return
          </CharString>
          <CharString index="333">
            rmoveto
            55 callgsubr
            return
          </CharString>
          <CharString index="334">
            54 9 -20 30 -33 hhcurveto
            -24 -21 -19 -51 callgsubr
            return
          </CharString>
          <CharString index="335">
            146 callgsubr
            -24 -21 -18 -24 -4 hvcurveto
            return
          </CharString>
          <CharString index="336" raw="1">
            331d3e0a 31060b  
          </CharString>
          <CharString index="337">
            hvcurveto
            -209 hlineto
            78 45 70 43 53 37 42 30 return
          </CharString>
          <CharString index="338">
            12 12 10 13 2 hvcurveto
            return
          </CharString>
          <CharString index="339">
            -21 562 44 -28 44 return
          </CharString>
          <CharString index="340">
            21 -21 434 -20 hstem
            return
          </CharString>
          <CharString index="341">
            114 callgsubr
            32 return
          </CharString>
          <CharString index="342">
            10 1 9 rlinecurve
            return
          </CharString>
          <CharString index="343" raw="1">
            c0aec05b 0b  
          </CharString>
          <CharString index="344">
            -11 248 callsubr
            return
          </CharString>
          <CharString index="345">
            -4 8 hhcurveto
            11 14 6 13 2 hvcurveto
            1 4 return
          </CharString>
          <CharString index="346">
            103 rmoveto
            20 4 -22 0 -5 hhcurveto
            -10 -9 -1 return
          </CharString>
          <CharString index="347">
            565 rmoveto
            52 9 -75 0 return
          </CharString>
          <CharString index="348">
            hlineto
            -44 -7 -3 -15 27 hhcurveto
            return
          </CharString>
          <CharString index="349">
            hhcurveto
            -25 -20 -19 -51 callgsubr
            return
          </CharString>
          <CharString index="350">
            -4 60 callsubr
            return
          </CharString>
          <CharString index="351">
            2 -8 10 -12 hhcurveto
            return
          </CharString>
          <CharString index="352">
            -4 rrcurveto
            -18 -16 return
          </CharString>
          <CharString index="353">
            53 20 52 -15 52 208 52 hintmask 01001000
            return
          </CharString>
          <CharString index="354">
            hvcurveto
            50 299 195 181 92 77 return
          </CharString>
          <CharString index="355">
            101 callsubr
            52 73 callsubr
            return
          </CharString>
          <CharString index="356">
            -186 44 142 44 349 44 hstemhm
            return
          </CharString>
          <CharString index="357">
            113 callsubr
            279 53 35 53 return
          </CharString>
          <CharString index="358">
            hstemhm
            114 76 -64 53 -49 53 103 76 return
          </CharString>
          <CharString index="359">
            43 63 10 hvcurveto
            endchar
          </CharString>
          <CharString index="360">
            12 513 -21 return
          </CharString>
          <CharString index="361">
            hstemhm
            126 53 return
          </CharString>
          <CharString index="362">
            3 17 16 2 return
          </CharString>
        <CharString name=".notdef">
          -233 endchar
        </CharString>
        <CharString name="A">
          50 callgsubr
          hstem
          -106 callgsubr
          endchar
        </CharString>
        <CharString name="AE">
          -35 callsubr
        </CharString>
        <CharString name="AE.dup">
          -35 callsubr
        </CharString>
        <CharString name="AEacute">
          420 0 44 145 44 62 44 228 145 callgsubr
          192 52 241 53 35 53 235 52 -38 53 -19 52 -41 53 hintmask 0000000000100000
          913 21 callsubr
          -27 66 callgsubr
          hintmask 1011000111001000
          -14 -81 rlineto
          -323 hlineto
          42 251 rlineto
          170 241 callsubr
          25 3 18 15 3 hvcurveto
          16 96 -19 callsubr
          -25 hhcurveto
          -27 -2 -15 -44 -7 hvcurveto
          -170 hlineto
          38 228 rlineto
          294 hlineto
          hintmask 0000000000010000
          -11 -64 rlineto
          hintmask 0000000000100000
          -15 -3 -3 -18 25 hhcurveto
          hintmask 0000000000010000
          27 -10 callsubr
          hintmask 1101001100001000
          12 75 -14 callgsubr
          -520 hlineto
          -12 -21 -78 callsubr
          60 callsubr
          32 hlineto
          -317 -523 rlineto
          -55 49 callsubr
          164 -64 callsubr
          -52 hlineto
          88 145 rlineto
          230 hlineto
          -25 -145 rlineto
          -40 hlineto
          -12 -21 -92 callgsubr
          22 0 11 hhcurveto
          hintmask 1000000000100000
          437 hlineto
          hintmask 0101000011000000
          26 7 7 26 5 hvcurveto
          -396 200 rmoveto
          -211 hlineto
          204 334 rlineto
          63 hlineto
          hintmask 0000110000000000
          118 179 -107 callgsubr
        </CharString>
        <CharString name="Aacute">
          50 callgsubr
          51 73 callsubr
          hintmask 11100000
          -106 callgsubr
          hintmask 00011000
          124 167 -107 callgsubr
        </CharString>
        <CharString name="Abreve">
          50 callgsubr
          30 47 51 -20 hstemhm
          hintmask 11100000
          -106 callgsubr
          hintmask 00011000
          82 callsubr
          endchar
        </CharString>
        <CharString name="Abreveacute">
          50 callgsubr
          30 47 191 -20 hstemhm
          hintmask 11100000
          -106 callgsubr
          hintmask 00011000
          82 callsubr
          -49 136 rmoveto
          16 3 -11 165 callsubr
          -11 -5 -10 195 callsubr
          -6 -1 0 -26 20 hhcurveto
          3 3 1 1 3 162 callgsubr
        </CharString>
        <CharString name="Abrevedotbelow">
          -206 84 122 30 callgsubr
          30 47 51 -20 hstemhm
          309 85 hintmask 01111100
          -106 callgsubr
          82 callsubr
          hintmask 10000010
          -279 -892 rmoveto
          23 3 -15 -98 callsubr
          endchar
        </CharString>
        <CharString name="Abrevegrave">
          50 callgsubr
          30 47 51 -20 hstemhm
          hintmask 11100000
          -106 callgsubr
          hintmask 00011000
          82 callsubr
          -59 75 rmoveto
          -6 -1 -10 -26 -20 hhcurveto
          -3 -1 1 1 -3 hvcurveto
          -134 64 -17 8 -3 10 2 9 rlinecurve
          16 3 13 11 15 hhcurveto
          0 6 0 10 -4 vhcurveto
          126 -62 11 -5 8 195 callsubr
          endchar
        </CharString>
        <CharString name="Abrevehookabove">
          50 callgsubr
          30 186 callsubr
          438 167 callgsubr
          48 39 -37 37 hintmask 1110000000100000
          -106 callgsubr
          hintmask 0001100000010000
          193 149 rmoveto
          14 3 -7 9 -15 hhcurveto
          -11 -6 -6 -6 -4 hvcurveto
          -34 -14 -75 -5 -47 hhcurveto
          -48 -74 5 34 -2 hvcurveto
          6 -2 -4 6 -11 hhcurveto
          -14 -10 -9 -14 -3 hvcurveto
          hintmask 0001000000100000
          149 callsubr
          hintmask 0000001100010000
          13 -17 -20 47 callsubr
          -7 hvcurveto
          -14 -2 4 -5 15 hhcurveto
          15 6 14 5 1 hvcurveto
          hintmask 0000011000100100
          18 3 23 18 25 hhcurveto
          22 15 -4 -7 10 hvcurveto
          7 -5 4 -10 -2 -12 rrcurveto
          0 -6 256 callgsubr
          hintmask 0000100001000000
          -42 -22 -36 -27 -7 -42 rrcurveto
          hintmask 0000100010000000
          -34 callgsubr
          hintmask 0000110001001000
          8 callsubr
        </CharString>
        <CharString name="Abrevetilde">
          751 49 0 47 0 49 hstemhm
          cntrmask 11100000
          -106 callgsubr
          hintmask 11100000
          193 149 4 callsubr
        </CharString>
        <CharString name="Acaron">
          50 callgsubr
          106 -20 hstemhm
          hintmask 11100000
          -106 callgsubr
          hintmask 00010000
          160 128 -99 callgsubr
        </CharString>
        <CharString name="Acircumflex">
          153 callsubr
          hstemhm
          hintmask 11100000
          -106 callgsubr
          hintmask 00010000
          153 86 -107 callsubr
          endchar
        </CharString>
        <CharString name="Acircumflexacute">
          153 callsubr
          226 -20 hstemhm
          hintmask 11100000
          -106 callgsubr
          hintmask 00011000
          153 86 -107 callsubr
          -13 177 -107 callgsubr
        </CharString>
        <CharString name="Acircumflexdotbelow">
          -206 84 122 30 callgsubr
          41 -21 hstemhm
          309 85 hintmask 01111000
          -106 callgsubr
          153 86 -107 callsubr
          hintmask 10000100
          -239 -829 rmoveto
          23 3 -15 -98 callsubr
          endchar
        </CharString>
        <CharString name="Acircumflexgrave">
          153 callsubr
          hstemhm
          hintmask 11100000
          -106 callgsubr
          hintmask 00010000
          153 86 -107 callsubr
          -23 116 -66 callgsubr
        </CharString>
        <CharString name="Acircumflexhookabove">
          153 callsubr
          86 105 callsubr
          525 159 callsubr
          hintmask 1110000000000000
          -106 callgsubr
          hintmask 0001000010000000
          153 86 -60 callsubr
        </CharString>
        <CharString name="Acircumflextilde">
          153 callsubr
          36 49 41 -15 callgsubr
          hintmask 1110000000000000
          -106 callgsubr
          hintmask 0001100010000000
          153 86 -107 callsubr
          60 185 -26 callgsubr
          hintmask 0000000100000000
          -86 callgsubr
          hintmask 0000010010000000
          -102 callgsubr
          hintmask 0000001000000000
          -46 callsubr
        </CharString>
        <CharString name="Adblgrave">
          50 callgsubr
          51 -21 118 -20 hstemhm
          hintmask 11100000
          -106 callgsubr
          hintmask 00011000
          144 103 -77 callgsubr
        </CharString>
        <CharString name="Adieresis">
          50 callgsubr
          20 74 hstemhm
          354 213 callsubr
          hintmask 11100000
          -106 callgsubr
          hintmask 00011100
          -51 101 -76 callgsubr
        </CharString>
        <CharString name="Adotbelow">
          -206 84 122 30 callgsubr
          hstemhm
          309 85 hintmask 01110000
          -106 callgsubr
          hintmask 10001000
          -86 -743 rmoveto
          23 3 -15 -98 callsubr
          endchar
        </CharString>
        <CharString name="Agrave">
          50 callgsubr
          51 73 callsubr
          hintmask 11100000
          -106 callgsubr
          hintmask 00011000
          113 106 rmoveto
          -101 callsubr
        </CharString>
        <CharString name="Ahookabove">
          50 callgsubr
          31 105 callsubr
          421 39 callgsubr
          hintmask 1110000000000000
          -106 callgsubr
          hintmask 0001110101000000
          124 220 -70 callsubr
          hintmask 0001001000000000
          -34 callgsubr
          hintmask 0001000110000000
          8 callsubr
        </CharString>
        <CharString name="Alpha">
          50 callgsubr
          hstem
          -106 callgsubr
          endchar
        </CharString>
        <CharString name="Amacron">
          50 callgsubr
          40 46 hstemhm
          hintmask 11100000
          -106 callgsubr
          hintmask 00010000
          199 106 -93 callsubr
        </CharString>
        <CharString name="Aogonek">
          -209 37 0 45 127 30 callgsubr
          -9 callgsubr
          endchar
        </CharString>
        <CharString name="Aogonekacute">
          -209 37 0 45 127 30 callgsubr
          51 -21 120 -20 -9 callgsubr
          hintmask 00000110
          124 167 -107 callgsubr
        </CharString>
        <CharString name="Aring">
          50 callgsubr
          0 29 78 29 hstemhm
          hintmask 11100000
          -106 callgsubr
          hintmask 00011000
          82 112 -18 callgsubr
          endchar
        </CharString>
        <CharString name="Aringacute">
          50 callgsubr
          0 234 callgsubr
          hstemhm
          542 43 hintmask 11100000
          -106 callgsubr
          hintmask 00011110
          82 112 -18 callgsubr
          19 181 -107 callgsubr
        </CharString>
        <CharString name="Atilde">
          50 callgsubr
          20 -15 callgsubr
          hintmask 11100000
          -106 callgsubr
          hintmask 00000010
          192 145 -26 callgsubr
          hintmask 00000100
          -86 callgsubr
          hintmask 00010010
          -102 callgsubr
          hintmask 00001000
          -46 callsubr
        </CharString>
        <CharString name="B">
          1 callsubr
        </CharString>
        <CharString name="Beta">
          1 callsubr
        </CharString>
        <CharString name="C">
          210 callgsubr
          109 52 vstem
          -84 callgsubr
          179 122 74 101 16 hvcurveto
          endchar
        </CharString>
        <CharString name="Cacute">
          237 callsubr
          109 52 hintmask 11001000
          -84 callgsubr
          179 122 74 101 16 hvcurveto
          hintmask 00110000
          -84 582 -107 callgsubr
        </CharString>
        <CharString name="Ccaron">
          74 callgsubr
          107 -20 hstemhm
          109 52 hintmask 11010000
          -84 callgsubr
          179 122 74 101 16 hvcurveto
          hintmask 00100000
          -48 543 -99 callgsubr
        </CharString>
        <CharString name="Ccedilla">
          252 callgsubr
          109 52 139 52 140 52 vstem
          -84 callgsubr
          11 hlineto
          -4 -26 -2 -13 -3 -17 23 -1 rlinecurve
          38 -2 25 155 callsubr
          -26 -24 -110 hhcurveto
          -26 -22 -28 callsubr
          -17 -3 13 -5 8 hhcurveto
          82 128 0 94 16 hvcurveto
          9 53 -40 32 -43 7 rrcurveto
          1 -2 3 22 0 vvcurveto
          146 17 92 66 14 89 rrcurveto
          endchar
        </CharString>
        <CharString name="Ccircumflex">
          74 callgsubr
          42 -21 hstemhm
          109 52 hintmask 11010000
          -84 callgsubr
          179 122 74 101 16 hvcurveto
          hintmask 00100000
          -55 501 -107 callsubr
          endchar
        </CharString>
        <CharString name="Cdotaccent">
          74 callgsubr
          32 84 hstemhm
          109 52 329 85 hintmask 11010000
          -84 callgsubr
          179 122 74 101 16 hvcurveto
          hintmask 00101000
          -151 532 -17 callsubr
        </CharString>
        <CharString name="Chi">
          -10 callgsubr
        </CharString>
        <CharString name="D">
          275 116 callsubr
          149 52 36 52 437 53 vstem
          -42 callsubr
          endchar
        </CharString>
        <CharString name="Dcaron">
          275 168 callsubr
          149 52 36 52 437 53 hintmask 11011100
          -42 callsubr
          hintmask 00100000
          -166 406 -99 callgsubr
        </CharString>
        <CharString name="Dcroat">
          -16 callgsubr
        </CharString>
        <CharString name="Ddotbelow">
          275 72 callsubr
          hstemhm
          149 52 28 85 -77 52 437 53 hintmask 01110110
          -42 callsubr
          hintmask 10001000
          -412 -465 rmoveto
          23 3 -15 -98 callsubr
          endchar
        </CharString>
        <CharString name="Delta">
          362 0 50 522 51 hstem
          821 10 rmoveto
          0 0 4 -1 4 vhcurveto
          -218 574 rlineto
          23 -9 -8 8 -33 hhcurveto
          -22 hlineto
          -23 -15 -1 -27 -20 hvcurveto
          -412 -576 rlineto
          -3 -5 0 -4 0 vvcurveto
          -10 -2 13 0 10 hhcurveto
          718 hlineto
          10 13 0 10 2 hvcurveto
          -74 40 rmoveto
          -604 hlineto
          372 522 rlineto
          34 hlineto
          endchar
        </CharString>
        <CharString name="Dlinebelow">
          275 -173 46 127 66 callsubr
          hstemhm
          149 52 36 52 437 53 hintmask 01111100
          -42 callsubr
          hintmask 10000000
          -266 -452 -93 callsubr
        </CharString>
        <CharString name="E">
          47 callgsubr
          hstem
          638 53 -52 52 -52 53 cntrmask 00011100
          676 33 rmoveto
          15 92 rlineto
          15 2 3 18 -25 hhcurveto
          -101 callgsubr
          -11 -64 rlineto
          -15 -3 -3 -18 26 hhcurveto
          -98 callgsubr
          560 215 callsubr
        </CharString>
        <CharString name="Eacute">
          47 callgsubr
          63 90 callsubr
          188 callsubr
          348 113 callgsubr
          hintmask 0000000100000000
          676 -32 callsubr
          -25 hhcurveto
          hintmask 1110011010000000
          -101 callgsubr
          hintmask 0000000001000000
          -11 -64 rlineto
          hintmask 0000000010000000
          -19 callgsubr
          hintmask 1010011001000000
          -98 callgsubr
          hintmask 1000000100000000
          560 -11 callsubr
          hintmask 0001100000000000
          -101 713 -107 callgsubr
        </CharString>
        <CharString name="Ebreve">
          47 callgsubr
          42 47 51 -20 188 callsubr
          348 113 callgsubr
          hintmask 0000000100000000
          676 -32 callsubr
          -25 hhcurveto
          hintmask 1110011010000000
          -101 callgsubr
          hintmask 0000000001000000
          -11 -64 rlineto
          hintmask 0000000010000000
          -19 callgsubr
          hintmask 1010011001000000
          -98 callgsubr
          hintmask 1000000100000000
          560 -11 callsubr
          hintmask 0001100000000000
          -32 695 -103 callgsubr
          endchar
        </CharString>
        <CharString name="Ecaron">
          47 callgsubr
          118 -20 188 callsubr
          348 113 callgsubr
          hintmask 0000001000000000
          676 -32 callsubr
          -25 hhcurveto
          hintmask 1110110100000000
          -101 callgsubr
          hintmask 0000000010000000
          -11 -64 rlineto
          hintmask 0000000100000000
          -15 -3 -3 -18 26 hhcurveto
          hintmask 1010110010000000
          -98 callgsubr
          hintmask 1000001000000000
          560 -11 callsubr
          hintmask 0001000000000000
          -65 674 -99 callgsubr
        </CharString>
        <CharString name="Ecircumflex">
          134 callsubr
          188 callsubr
          348 113 callgsubr
          hintmask 0000001000000000
          676 -32 callsubr
          -25 hhcurveto
          hintmask 1110110100000000
          -101 callgsubr
          hintmask 0000000010000000
          -11 -64 rlineto
          hintmask 0000000100000000
          -15 -3 -3 -18 26 hhcurveto
          hintmask 1010110010000000
          -98 callgsubr
          hintmask 1000001000000000
          560 -11 callsubr
          hintmask 0001000000000000
          -72 632 -107 callsubr
          endchar
        </CharString>
        <CharString name="Ecircumflexacute">
          134 callsubr
          226 -20 188 callsubr
          348 113 callgsubr
          hintmask 0000000100000000
          676 -32 callsubr
          -25 hhcurveto
          hintmask 1110011010000000
          -101 callgsubr
          hintmask 0000000001000000
          -11 -64 rlineto
          hintmask 0000000010000000
          -19 callgsubr
          hintmask 1010011001000000
          -98 callgsubr
          hintmask 1000000100000000
          560 -11 callsubr
          hintmask 0001100000000000
          -72 632 -107 callsubr
          -13 177 -107 callgsubr
        </CharString>
        <CharString name="Ecircumflexdotbelow">
          187 -206 84 122 65 callgsubr
          53 -21 188 callsubr
          -10 85 273 113 callgsubr
          hintmask 0000000010000000
          676 -32 callsubr
          -25 hhcurveto
          hintmask 0111011001000000
          -101 callgsubr
          hintmask 0000000000100000
          -11 -64 rlineto
          hintmask 0000000001000000
          -19 callgsubr
          hintmask 0101011000100000
          -98 callgsubr
          hintmask 0100100010000000
          560 -11 callsubr
          -72 632 -107 callsubr
          hintmask 1000000100000000
          -239 -829 rmoveto
          23 3 -15 -98 callsubr
          endchar
        </CharString>
        <CharString name="Ecircumflexgrave">
          134 callsubr
          188 callsubr
          348 113 callgsubr
          hintmask 0000001000000000
          676 -32 callsubr
          -25 hhcurveto
          hintmask 1110110100000000
          -101 callgsubr
          hintmask 0000000010000000
          -11 -64 rlineto
          hintmask 0000000100000000
          -15 -3 -3 -18 26 hhcurveto
          hintmask 1010110010000000
          -98 callgsubr
          hintmask 1000001000000000
          560 -11 callsubr
          hintmask 0001000000000000
          -72 632 -107 callsubr
          -23 116 -66 callgsubr
        </CharString>
        <CharString name="Ecircumflexhookabove">
          134 callsubr
          86 37 143 37 188 callsubr
          206 159 callsubr
          45 113 callgsubr
          hintmask 0000000000001000
          676 -32 callsubr
          -25 hhcurveto
          hintmask 1110001100000100
          -101 callgsubr
          hintmask 0000000000000010
          -11 -64 rlineto
          hintmask 0000000000000100
          -19 callgsubr
          hintmask 1010001100000010
          -98 callgsubr
          hintmask 1000000000001000
          560 -11 callsubr
          hintmask 0001000000100000
          -72 632 -107 callsubr
          76 209 rmoveto
          3 21 -7 253 callgsubr
          hintmask 0000010010010000
          -54 callgsubr
          hintmask 0000100000100000
          -43 -22 -35 -27 -7 -42 rrcurveto
          hintmask 0000000001000000
          -4 -19 rlineto
          hintmask 0000100000010000
          135 callsubr
          hintmask 0000000001000000
          135 callgsubr
          hintmask 0000100000100000
          31 callsubr
        </CharString>
        <CharString name="Ecircumflextilde">
          134 callsubr
          36 49 41 -15 callgsubr
          150 52 36 52 348 113 callgsubr
          hintmask 0000000000010000
          676 -32 callsubr
          -25 hhcurveto
          hintmask 1110000001101000
          -101 callgsubr
          hintmask 0000000000000100
          -11 -64 rlineto
          hintmask 0000000000001000
          -19 callgsubr
          hintmask 1010000001100100
          -98 callgsubr
          hintmask 1000000000010000
          560 -11 callsubr
          hintmask 0001100010000000
          -72 632 -107 callsubr
          60 185 -26 callgsubr
          hintmask 0000000100000000
          -86 callgsubr
          hintmask 0000010010000000
          -102 callgsubr
          hintmask 0000001000000000
          -46 callsubr
        </CharString>
        <CharString name="Edblgrave">
          47 callgsubr
          63 -21 118 -20 188 callsubr
          348 113 callgsubr
          hintmask 0000000100000000
          676 -32 callsubr
          -25 hhcurveto
          hintmask 1110011010000000
          -101 callgsubr
          hintmask 0000000001000000
          -11 -64 rlineto
          hintmask 0000000010000000
          -19 callgsubr
          hintmask 1010011001000000
          -98 callgsubr
          hintmask 1000000100000000
          560 -11 callsubr
          hintmask 0001100000000000
          -52 649 -77 callgsubr
        </CharString>
        <CharString name="Edieresis">
          47 callgsubr
          32 74 188 callsubr
          35 213 callsubr
          35 113 callgsubr
          hintmask 0000000010000000
          676 -32 callsubr
          -25 hhcurveto
          hintmask 1110110001000000
          -101 callgsubr
          hintmask 0000000000100000
          -11 -64 rlineto
          hintmask 0000000001000000
          -19 callgsubr
          hintmask 1010110000100000
          -98 callgsubr
          hintmask 1000000010000000
          560 -11 callsubr
          hintmask 0001001100000000
          -276 647 -76 callgsubr
        </CharString>
        <CharString name="Edotaccent">
          47 callgsubr
          43 84 188 callsubr
          133 85 130 113 callgsubr
          hintmask 0000000100000000
          676 -32 callsubr
          -25 hhcurveto
          hintmask 1110110010000000
          -101 callgsubr
          hintmask 0000000001000000
          -11 -64 rlineto
          hintmask 0000000010000000
          -19 callgsubr
          hintmask 1010110001000000
          -98 callgsubr
          hintmask 1000000100000000
          560 -11 callsubr
          hintmask 0001001000000000
          -168 663 -17 callsubr
        </CharString>
        <CharString name="Edotbelow">
          187 -206 84 122 65 callgsubr
          188 callsubr
          -10 85 273 113 callgsubr
          hintmask 0000000100000000
          676 -32 callsubr
          -25 hhcurveto
          hintmask 0111110010000000
          -101 callgsubr
          hintmask 0000000001000000
          -11 -64 rlineto
          hintmask 0000000010000000
          -19 callgsubr
          hintmask 0101110001000000
          -98 callgsubr
          hintmask 0100000100000000
          560 -11 callsubr
          hintmask 1000001000000000
          -311 -197 rmoveto
          23 3 -15 -98 callsubr
          endchar
        </CharString>
        <CharString name="Egrave">
          47 callgsubr
          63 90 callsubr
          188 callsubr
          348 113 callgsubr
          hintmask 0000000100000000
          676 -32 callsubr
          -25 hhcurveto
          hintmask 1110011010000000
          -101 callgsubr
          hintmask 0000000001000000
          -11 -64 rlineto
          hintmask 0000000010000000
          -19 callgsubr
          hintmask 1010011001000000
          -98 callgsubr
          hintmask 1000000100000000
          560 -11 callsubr
          hintmask 0001100000000000
          -112 652 rmoveto
          -101 callsubr
        </CharString>
        <CharString name="Ehookabove">
          47 callgsubr
          43 37 143 37 188 callsubr
          101 39 callgsubr
          64 113 callgsubr
          hintmask 0000000000001000
          676 -32 callsubr
          -25 hhcurveto
          hintmask 1110011000000100
          -101 callgsubr
          hintmask 0000000000000010
          -11 -64 rlineto
          hintmask 0000000000000100
          -19 callgsubr
          hintmask 1010011000000010
          -98 callgsubr
          hintmask 1000000000001000
          560 -11 callsubr
          hintmask 0001100101010000
          -102 766 -70 callsubr
          hintmask 0001000010000000
          -34 callgsubr
          hintmask 0001000001100000
          8 callsubr
        </CharString>
        <CharString name="Emacron">
          47 callgsubr
          52 46 188 callsubr
          348 113 callgsubr
          hintmask 0000001000000000
          676 -32 callsubr
          -25 hhcurveto
          hintmask 1110110100000000
          -101 callgsubr
          hintmask 0000000010000000
          -11 -64 rlineto
          hintmask 0000000100000000
          -15 -3 -3 -18 26 hhcurveto
          hintmask 1010110010000000
          -98 callgsubr
          hintmask 1000001000000000
          560 -11 callsubr
          hintmask 0001000000000000
          -26 652 -93 callsubr
        </CharString>
        <CharString name="Eng">
          54 callsubr
          -42 53 -44 44 hstemhm
          119 53 550 53 hintmask 00010000
          775 306 rmoveto
          173 29 -111 143 -171 hhcurveto
          -98 -106 -32 -58 -64 hvcurveto
          7 46 rlineto
          hintmask 11001000
          -68 callgsubr
          22 3 -20 0 -12 hhcurveto
          -65 hlineto
          65 385 rlineto
          hintmask 00100100
          98 30 128 42 118 hhcurveto
          141 92 -120 -143 -24 hvcurveto
          -19 -117 -58 -118 -97 -26 rrcurveto
          12 -9 -9 4 -10 hhcurveto
          -21 -18 -17 -19 -3 hvcurveto
          -20 -3 12 -16 21 hhcurveto
          141 100 158 159 26 hvcurveto
          endchar
        </CharString>
        <CharString name="Eogonek">
          187 -209 37 172 65 callgsubr
          hstem
          533 53 0 52 0 53 cntrmask 00001110
          676 33 rmoveto
          15 92 rlineto
          15 2 3 18 -25 hhcurveto
          -101 callgsubr
          -11 -64 rlineto
          -15 -3 -3 -18 26 hhcurveto
          -98 callgsubr
          454 hlineto
          -71 -41 -25 -34 -7 -46 6 callsubr
          -7 callgsubr
          47 43 41 67 35 rrcurveto
          50 215 callsubr
        </CharString>
        <CharString name="Eogonekacute">
          187 -209 37 172 44 251 44 228 145 callgsubr
          150 52 36 52 139 41 63 53 0 53 -1 113 callgsubr
          hintmask 0000000000010000
          676 -32 callsubr
          -25 hhcurveto
          hintmask 0111001101001000
          -101 callgsubr
          hintmask 0000000000000100
          -11 -64 rlineto
          hintmask 0000000000001000
          -19 callgsubr
          hintmask 1101001110100100
          -98 callgsubr
          454 hlineto
          -71 -41 -25 -34 -7 -46 6 callsubr
          -7 callgsubr
          47 43 41 67 35 rrcurveto
          hintmask 0100000000010000
          50 -11 callsubr
          hintmask 0000110000000000
          -101 713 -107 callgsubr
        </CharString>
        <CharString name="Epsilon">
          47 callgsubr
          188 callsubr
          348 113 callgsubr
          hintmask 00000100
          676 -32 callsubr
          -25 hhcurveto
          hintmask 11111010
          -101 callgsubr
          hintmask 00000001
          -11 -64 rlineto
          hintmask 00000010
          -19 callgsubr
          hintmask 10111001
          -98 callgsubr
          hintmask 10000100
          560 215 callsubr
        </CharString>
        <CharString name="Ereversed">
          47 callgsubr
          hstemhm
          67 52 40 53 -41 52 305 52 36 52 hintmask 10100111
          674 -70 callgsubr
          88 523 rlineto
          65 hlineto
          12 20 9 callsubr
          -531 hlineto
          -27 -6 -8 -25 -5 hvcurveto
          hintmask 00001000
          -12 -75 rlineto
          -16 -3 -3 -17 86 callgsubr
          hintmask 11110111
          11 64 rlineto
          393 hlineto
          -38 -228 rlineto
          -224 hlineto
          44 7 2 15 -27 hhcurveto
          -26 66 callgsubr
          -16 -96 rlineto
          -19 callgsubr
          27 3 15 44 7 hvcurveto
          224 hlineto
          -42 -251 rlineto
          -423 hlineto
          14 81 -19 callsubr
          -27 hhcurveto
          -25 66 callgsubr
          -16 -92 rlineto
          -26 -4 4 -7 27 hhcurveto
          560 -47 callgsubr
          endchar
        </CharString>
        <CharString name="Eta">
          214 callsubr
          279 53 35 53 vstem
          -97 callgsubr
          endchar
        </CharString>
        <CharString name="Eth">
          -16 callgsubr
        </CharString>
        <CharString name="Etilde">
          47 callgsubr
          32 -15 callgsubr
          150 52 36 52 348 113 callgsubr
          hintmask 0000000001000000
          676 -32 callsubr
          -25 hhcurveto
          hintmask 1110000110100000
          -101 callgsubr
          hintmask 0000000000010000
          -11 -64 rlineto
          hintmask 0000000000100000
          -19 callgsubr
          hintmask 1010000110010000
          -98 callgsubr
          hintmask 1000000001000000
          560 -11 callsubr
          hintmask 0000001000000000
          -33 691 -26 callgsubr
          hintmask 0000010000000000
          -86 callgsubr
          hintmask 0001001000000000
          -102 callgsubr
          hintmask 0000100000000000
          -46 callsubr
        </CharString>
        <CharString name="Euro">
          144 -11 45 183 46 86 46 182 45 hstemhm
          113 53 -39 53 -14 53 -49 53 -43 53 264 53 12 53 -40 53 0 53 hintmask 1100001001100000
          600 9 rmoveto
          15 93 rlineto
          11 2 -7 10 -12 hhcurveto
          -12 hlineto
          -10 -11 -8 -10 -3 hvcurveto
          -54 -19 -67 -17 -61 hhcurveto
          -64 -55 30 48 -34 hvcurveto
          -20 28 -12 31 -9 46 rrcurveto
          261 hlineto
          7 6 4 6 3 hvcurveto
          10 16 rlineto
          10 4 -5 10 -10 hhcurveto
          -278 hlineto
          hintmask 0000000100000000
          1 19 1 11 2 13 rrcurveto
          hintmask 0011000011001000
          2 12 3 11 5 20 rrcurveto
          317 hlineto
          6 7 4 5 3 hvcurveto
          8 17 rlineto
          9 4 -5 11 -10 hhcurveto
          -312 hlineto
          23 45 24 31 28 27 rrcurveto
          49 50 65 30 64 hhcurveto
          61 61 -17 -54 1 hvcurveto
          -10 1 7 -8 10 hhcurveto
          12 hlineto
          85 callsubr
          15 93 rlineto
          11 2 -7 9 -12 hhcurveto
          -4 hlineto
          -7 -7 -3 -6 -5 hvcurveto
          -18 -22 rlineto
          24 -40 -47 7 -47 hhcurveto
          -78 -78 -36 -57 -61 hvcurveto
          -39 -37 -30 -45 -24 -52 rrcurveto
          -47 250 callgsubr
          -9 -4 5 -10 10 hhcurveto
          45 hlineto
          hintmask 0100100100000000
          -5 -21 -3 -11 -2 -11 -2 -11 -1 -12 -1 -20 rrcurveto
          hintmask 0100010000000000
          -39 250 callgsubr
          hintmask 1100100000010000
          -9 -4 5 -10 10 hhcurveto
          53 hlineto
          6 -53 16 -45 27 -37 rrcurveto
          -57 41 66 -36 78 hhcurveto
          47 50 9 22 47 hvcurveto
          12 -22 rlineto
          -6 3 5 -3 7 hhcurveto
          4 hlineto
          12 11 9 11 2 hvcurveto
          endchar
        </CharString>
        <CharString name="F">
          158 0 44 239 45 239 44 hstem
          150 53 35 53 366 53 cntrmask 11100000
          710 503 rmoveto
          12 75 -14 callgsubr
          -516 -97 callsubr
          208 hlineto
          11 -75 callsubr
          55 callgsubr
          -12 hhcurveto
          -90 hlineto
          147 callgsubr
          217 hlineto
          -43 -7 -2 -15 27 hhcurveto
          26 3 18 15 2 hvcurveto
          16 95 -19 callsubr
          -26 hhcurveto
          -27 -2 -15 -43 -7 hvcurveto
          -217 hlineto
          147 callgsubr
          377 17 callsubr
          endchar
        </CharString>
        <CharString name="G">
          304 -11 221 callgsubr
          492 53 hintmask 11000000
          -41 callgsubr
          hintmask 10111100
          -93 callgsubr
          hintmask 01000000
          56 callsubr
          endchar
        </CharString>
        <CharString name="Gacute">
          92 callsubr
          52 -21 120 95 callgsubr
          hintmask 10110011
          -93 callgsubr
          hintmask 01000000
          56 callsubr
          hintmask 00001100
          -181 509 -107 callgsubr
        </CharString>
        <CharString name="Gamma">
          241 callgsubr
          hstem
          160 callgsubr
          337 52 vstem
          680 503 rmoveto
          12 75 -14 callgsubr
          -485 -89 callgsubr
          192 callsubr
          88 523 rlineto
          348 hlineto
          -11 -64 rlineto
          -15 -3 -3 -18 25 159 callgsubr
          endchar
        </CharString>
        <CharString name="Gbreve">
          92 callsubr
          31 47 51 95 callgsubr
          hintmask 10110011
          -93 callgsubr
          hintmask 01000000
          56 callsubr
          hintmask 00001100
          -112 491 -103 callgsubr
          endchar
        </CharString>
        <CharString name="Gcaron">
          92 callsubr
          107 95 callgsubr
          hintmask 10110110
          -93 callgsubr
          hintmask 01000000
          56 callsubr
          hintmask 00001000
          -145 470 -99 callgsubr
        </CharString>
        <CharString name="Gcedilla">
          304 67 callsubr
          62 221 callgsubr
          204 63 225 53 hintmask 0011000000000000
          -41 callgsubr
          hintmask 0010111010000000
          -93 callgsubr
          hintmask 1101000100000000
          56 callsubr
          -387 -349 -96 callsubr
        </CharString>
        <CharString name="Gcircumflex">
          92 callsubr
          42 -21 hstemhm
          108 52 492 53 hintmask 11000000
          -41 callgsubr
          hintmask 10110110
          -93 callgsubr
          hintmask 01000000
          56 callsubr
          hintmask 00001010
          -152 428 -107 callsubr
          endchar
        </CharString>
        <CharString name="Gcommaaccent">
          304 67 callsubr
          62 221 callgsubr
          204 63 225 53 hintmask 0011000000000000
          -41 callgsubr
          hintmask 0010111010000000
          -93 callgsubr
          hintmask 0001000000000000
          56 callsubr
          hintmask 1100000100000000
          -387 -349 -96 callsubr
        </CharString>
        <CharString name="Gdotaccent">
          92 callsubr
          32 84 hstemhm
          108 52 321 85 86 53 hintmask 11000000
          -41 callgsubr
          hintmask 10110101
          -93 callgsubr
          hintmask 01000000
          56 callsubr
          hintmask 00001010
          -248 459 -17 callsubr
        </CharString>
        <CharString name="H">
          214 callsubr
          279 53 35 53 vstem
          -97 callgsubr
          endchar
        </CharString>
        <CharString name="H_uni0303">
          187 callgsubr
          32 48 -16 49 -33 48 -40 49 239 callgsubr
          hintmask 1110000111100000
          -97 callgsubr
          hintmask 0000001000000000
          -44 702 -26 callgsubr
          hintmask 0000010000000000
          -86 callgsubr
          hintmask 0001001000000000
          -102 callgsubr
          hintmask 0000100000000000
          -46 callsubr
        </CharString>
        <CharString name="Hbar">
          0 237 callgsubr
          100 45 82 44 254 callsubr
          -30 53 13 53 -45 53 -39 53 279 53 13 53 -45 53 -39 53 hintmask 1010000001100000
          716 -70 callgsubr
          66 396 rlineto
          70 hlineto
          12 13 211 callsubr
          -9 10 -12 hhcurveto
          hintmask 0010000000010000
          -70 hlineto
          hintmask 0001000000001000
          14 82 rlineto
          65 27 callsubr
          -183 hlineto
          -12 -19 62 callsubr
          11 hhcurveto
          65 hlineto
          hintmask 0010000100010000
          -14 -82 rlineto
          -367 hlineto
          hintmask 0001100010000000
          14 82 rlineto
          64 -63 callsubr
          -182 -34 callsubr
          hintmask 0010100100000000
          -14 -82 rlineto
          -70 hlineto
          -12 -13 -10 -12 -2 hvcurveto
          -13 -2 9 -10 12 hhcurveto
          hintmask 1110011001100000
          70 hlineto
          -66 -396 -96 callgsubr
          182 hlineto
          -20 callsubr
          42 252 245 callgsubr
          -42 -252 -40 callgsubr
          -97 318 rmoveto
          -367 hlineto
          16 100 245 callgsubr
          endchar
        </CharString>
        <CharString name="Hbrevebelow">
          -199 47 51 -20 121 158 callsubr
          239 callgsubr
          hintmask 0011111110000000
          -97 callgsubr
          hintmask 1100000000000000
          -185 -146 -103 callgsubr
          endchar
        </CharString>
        <CharString name="Hcircumflex">
          187 callgsubr
          53 -21 239 callgsubr
          hintmask 11101111
          -97 callgsubr
          hintmask 00010000
          -83 643 -107 callsubr
          endchar
        </CharString>
        <CharString name="Hdieresis">
          187 callgsubr
          32 74 107 callgsubr
          64 213 callsubr
          -63 53 35 53 hintmask 1110111011000000
          -97 callgsubr
          hintmask 0001001100000000
          -287 658 -76 callgsubr
        </CharString>
        <CharString name="Hdotbelow">
          -206 84 122 158 callsubr
          107 callgsubr
          19 85 175 53 35 53 hintmask 0111110110000000
          -97 callgsubr
          hintmask 1000001000000000
          -322 -186 rmoveto
          23 3 -15 -98 callsubr
          endchar
        </CharString>
        <CharString name="I">
          122 callgsubr
          hstem
          172 callgsubr
          vstem
          -102 callsubr
          endchar
        </CharString>
        <CharString name="I_J">
          327 -11 44 -33 66 callsubr
          hstemhm
          148 52 36 52 70 52 0 73 188 73 -52 52 20 53 hintmask 0111110101000000
          299 187 callsubr
          -70 137 callsubr
          70 -63 callsubr
          -192 hlineto
          -13 -19 62 callsubr
          12 hhcurveto
          70 hlineto
          172 callsubr
          -70 -72 callsubr
          192 -47 callgsubr
          594 567 rmoveto
          22 4 87 callsubr
          -186 -56 callgsubr
          93 hlineto
          hintmask 1010001011000000
          -72 -432 rlineto
          -96 -16 -93 -6 -21 hhcurveto
          -9 -53 0 35 -33 hvcurveto
          10 11 4 4 2 13 204 callgsubr
          -19 208 callsubr
          58 -43 97 hhcurveto
          87 88 51 89 15 hvcurveto
          73 438 rlineto
          40 hlineto
          13 20 0 22 3 hvcurveto
          endchar
        </CharString>
        <CharString name="Iacute">
          -163 104 callsubr
          155 53 35 53 hintmask 11001100
          -102 callsubr
          hintmask 00110000
          93 724 -107 callgsubr
        </CharString>
        <CharString name="Ibreve">
          122 callgsubr
          42 47 51 209 callsubr
          hintmask 11001100
          -102 callsubr
          hintmask 00110000
          162 706 -103 callgsubr
          endchar
        </CharString>
        <CharString name="Icaron">
          -163 168 callsubr
          155 53 35 53 hintmask 11011000
          -102 callsubr
          hintmask 00100000
          129 685 -99 callgsubr
        </CharString>
        <CharString name="Icircumflex">
          122 callgsubr
          53 -21 155 callgsubr
          hintmask 11011000
          -102 callsubr
          hintmask 00100000
          122 643 -107 callsubr
          endchar
        </CharString>
        <CharString name="Idblgrave">
          122 callgsubr
          63 -21 118 209 callsubr
          hintmask 11001100
          -102 callsubr
          hintmask 00110000
          142 660 -77 callgsubr
        </CharString>
        <CharString name="Idieresis">
          -163 204 callsubr
          hstemhm
          150 75 -70 53 35 53 57 75 hintmask 11001100
          -102 callsubr
          hintmask 00110010
          -82 658 -76 callgsubr
        </CharString>
        <CharString name="Idieresisacute">
          -163 0 44 523 44 32 207 callgsubr
          150 75 -70 53 35 53 57 75 hintmask 1100001100000000
          -102 callsubr
          hintmask 0010110010000000
          -82 658 -95 callgsubr
          -10 171 rmoveto
          16 3 -10 11 -15 hhcurveto
          0 -6 0 -11 -4 vhcurveto
          -147 -62 rlineto
          hintmask 0001001000000000
          -12 -5 -10 -4 -2 -13 rrcurveto
          -6 -1 1 -26 20 hhcurveto
          3 2 1 1 3 hvcurveto
          -84 callsubr
        </CharString>
        <CharString name="Idotaccent">
          122 callgsubr
          43 84 155 callgsubr
          -48 85 hintmask 11011000
          -102 callsubr
          hintmask 00100100
          26 674 -17 callsubr
        </CharString>
        <CharString name="Idotbelow">
          -163 72 callsubr
          hstemhm
          105 85 -35 53 35 53 hintmask 01101100
          -102 callsubr
          hintmask 10001000
          -117 131 callgsubr
        </CharString>
        <CharString name="Igrave">
          -163 104 callsubr
          155 53 35 53 hintmask 11001100
          -102 callsubr
          hintmask 00110000
          82 663 rmoveto
          -101 callsubr
        </CharString>
        <CharString name="Ihookabove">
          122 callgsubr
          43 105 callsubr
          155 53 8 39 -12 53 -36 65 callsubr
          hintmask 1100101000000000
          -102 callsubr
          hintmask 0011010010100000
          92 777 rmoveto
          4 21 -8 21 -17 13 rrcurveto
          13 -17 -20 -7 callsubr
          17 19 3 22 rrcurveto
          endchar
        </CharString>
        <CharString name="Imacron">
          122 callgsubr
          52 46 155 callgsubr
          hintmask 11011000
          -102 callsubr
          hintmask 00100000
          168 663 -93 callsubr
        </CharString>
        <CharString name="Imacron.alt">
          122 callgsubr
          52 46 155 callgsubr
          hintmask 11011000
          -102 callsubr
          hintmask 00100000
          80 663 41 callgsubr
        </CharString>
        <CharString name="Iogonek">
          -163 -209 37 172 66 callsubr
          hstem
          92 41 22 53 35 53 vstem
          10 callsubr
          endchar
        </CharString>
        <CharString name="Iogonekacute">
          -163 -209 37 172 98 callgsubr
          92 41 22 53 35 53 hintmask 11100111
          10 callsubr
          hintmask 00011000
          93 724 -107 callgsubr
        </CharString>
        <CharString name="Iota">
          122 callgsubr
          hstem
          172 callgsubr
          vstem
          -102 callsubr
          endchar
        </CharString>
        <CharString name="Itilde">
          122 callgsubr
          32 -15 callgsubr
          155 53 35 53 hintmask 11000011
          -102 callsubr
          hintmask 00000100
          161 702 -26 callgsubr
          hintmask 00001001
          -86 callgsubr
          hintmask 00100110
          -102 callgsubr
          hintmask 00010000
          -46 callsubr
        </CharString>
        <CharString name="J">
          12 114 callgsubr
          hstem
          208 callgsubr
          vstem
          -37 callgsubr
          endchar
        </CharString>
        <CharString name="J_uni030C.cap">
          12 -11 44 434 -21 121 44 hstem
          208 callgsubr
          121 63 vstem
          -37 callgsubr
          108 -37 8 callgsubr
        </CharString>
        <CharString name="Jacute">
          12 -11 44 534 145 callgsubr
          208 callgsubr
          hintmask 11001110
          -37 callgsubr
          hintmask 00110000
          -1 157 -107 callgsubr
        </CharString>
        <CharString name="Jcircumflex">
          12 114 callgsubr
          53 -21 hstemhm
          208 callgsubr
          hintmask 11011100
          -37 callgsubr
          hintmask 00100000
          28 76 -107 callsubr
          endchar
        </CharString>
        <CharString name="K">
          275 0 228 callgsubr
          297 43 123 43 hintmask 11011010
          -39 callsubr
          hintmask 10100000
          32 callsubr
          hintmask 10010110
          37 callgsubr
          endchar
        </CharString>
        <CharString name="Kappa">
          275 0 228 callgsubr
          297 43 123 43 hintmask 11011010
          -39 callsubr
          hintmask 10100000
          32 callsubr
          hintmask 10010110
          37 callgsubr
          endchar
        </CharString>
        <CharString name="Kcedilla">
          275 -197 -21 165 -20 73 228 callgsubr
          64 63 170 43 123 43 hintmask 0011011001000000
          -39 callsubr
          hintmask 0010100000000000
          32 callsubr
          hintmask 1110010111000000
          37 callgsubr
          -336 -134 -96 callsubr
        </CharString>
        <CharString name="Kcommaaccent">
          275 -197 -21 165 -20 73 228 callgsubr
          64 63 170 43 123 43 hintmask 0011011001000000
          -39 callsubr
          hintmask 0010100000000000
          32 callsubr
          hintmask 0010010011000000
          37 callgsubr
          hintmask 1100000100000000
          -336 -134 -96 callsubr
        </CharString>
        <CharString name="L">
          241 callgsubr
          hstem
          160 callgsubr
          274 52 vstem
          -89 callsubr
          endchar
        </CharString>
        <CharString name="L_uni0303">
          241 callgsubr
          32 -15 callgsubr
          160 callgsubr
          274 52 hintmask 1100001110000000
          -89 callsubr
          hintmask 0000010000000000
          11 691 -26 callgsubr
          hintmask 0000100000000000
          -86 callgsubr
          hintmask 0010010000000000
          -102 callgsubr
          hintmask 0001000000000000
          -46 callsubr
        </CharString>
        <CharString name="Lacute">
          129 104 callsubr
          160 callgsubr
          274 52 hintmask 11001110
          -89 callsubr
          hintmask 00110000
          -57 713 -107 callgsubr
        </CharString>
        <CharString name="Lambda">
          187 0 44 529 50 hstem
          663 187 callsubr
          -43 hlineto
          -88 552 rlineto
          27 -4 -20 0 -16 hhcurveto
          -19 hlineto
          -16 -20 0 -27 -14 hvcurveto
          -272 -552 rlineto
          -43 -72 callsubr
          154 -64 callsubr
          -56 hlineto
          262 529 rlineto
          12 hlineto
          85 -529 rlineto
          -56 -72 callsubr
          154 -47 callgsubr
          endchar
        </CharString>
        <CharString name="Lcaron">
          129 0 44 423 -21 121 44 hstem
          160 callgsubr
          189 63 22 52 vstem
          -89 callsubr
          -59 519 8 callgsubr
        </CharString>
        <CharString name="Lcedilla">
          129 64 callsubr
          hstemhm
          160 callgsubr
          -15 63 226 52 hintmask 01111101
          -89 callsubr
          -263 -145 22 callsubr
          hintmask 10000010
          -17 -14 -13 -15 -3 hvcurveto
          -4 -3 -24 37 -3 vhcurveto
          -6 -24 -6 -27 -39 -27 -3 -4 -6 -5 -1 -5 rrcurveto
          -6 -1 6 -8 8 hhcurveto
          16 51 252 callsubr
        </CharString>
        <CharString name="Lcommaaccent">
          129 64 callsubr
          hstemhm
          160 callgsubr
          -15 63 226 52 hintmask 00111101
          -89 callsubr
          hintmask 11000010
          -263 -145 -96 callsubr
        </CharString>
        <CharString name="Ldot">
          129 0 44 231 84 208 44 hstemhm
          160 callgsubr
          210 85 -21 52 hintmask 11111010
          -89 callsubr
          -16 284 rmoveto
          23 4 -16 19 -23 hhcurveto
          hintmask 01000100
          48 callgsubr
        </CharString>
        <CharString name="Ldotbelow">
          129 72 callsubr
          hstemhm
          160 callgsubr
          -40 85 229 52 hintmask 01111010
          -89 callsubr
          hintmask 10000100
          -266 -197 rmoveto
          23 3 -15 -98 callsubr
          endchar
        </CharString>
        <CharString name="Ldotbelowmacron">
          129 72 callsubr
          52 46 hstemhm
          160 callgsubr
          -40 85 229 52 hintmask 11101101
          -89 callsubr
          -266 -197 rmoveto
          145 callsubr
          hintmask 10000010
          -26 -21 -21 -21 -3 105 callgsubr
          20 21 21 4 hvcurveto
          hintmask 00010000
          146 849 -93 callsubr
        </CharString>
        <CharString name="Lslash">
          241 callgsubr
          hstem
          160 callgsubr
          274 52 vstem
          602 21 callsubr
          -26 -2 -17 -16 -3 236 callgsubr
          -348 hlineto
          45 267 235 146 11 7 5 12 -6 10 rlinecurve
          -7 11 -9 3 -11 -7 -210 -132 rcurveline
          35 206 rlineto
          90 hlineto
          12 20 9 callsubr
          -207 hlineto
          -13 -19 62 callsubr
          12 hhcurveto
          65 hlineto
          -40 -235 -84 -54 -11 -7 -7 -13 7 -10 rlinecurve
          7 -9 9 -5 13 9 58 39 rcurveline
          -40 -238 -27 callgsubr
          485 215 callsubr
        </CharString>
        <CharString name="M">
          420 116 callsubr
          154 39 49 39 13 39 420 39 49 39 vstem
          -52 callgsubr
          endchar
        </CharString>
        <CharString name="Mdotbelow">
          420 72 callsubr
          hstemhm
          154 39 49 39 13 39 64 85 271 39 49 39 hintmask 0111110110000000
          -52 callgsubr
          hintmask 1000001000000000
          -404 -186 rmoveto
          23 3 -15 -98 callsubr
          endchar
        </CharString>
        <CharString name="Mu">
          420 116 callsubr
          154 39 49 39 13 39 420 39 49 39 vstem
          -52 callgsubr
          endchar
        </CharString>
        <CharString name="N">
          116 callsubr
          194 callgsubr
          vstem
          -100 callgsubr
          endchar
        </CharString>
        <CharString name="Nacute">
          104 callsubr
          194 callgsubr
          hintmask 11001111
          -100 callgsubr
          hintmask 00110000
          -199 158 -107 callgsubr
        </CharString>
        <CharString name="Ncaron">
          168 callsubr
          194 callgsubr
          hintmask 11011110
          -100 callgsubr
          hintmask 00100000
          -163 119 -99 callgsubr
        </CharString>
        <CharString name="Ncedilla">
          64 callsubr
          hstem
          183 callsubr
          52 63 177 39 50 39 vstem
          -100 callgsubr
          -405 -700 -96 callsubr
        </CharString>
        <CharString name="Ncommaaccent">
          64 callsubr
          hstemhm
          183 callsubr
          52 63 177 39 50 39 hintmask 0011110110000000
          -100 callgsubr
          hintmask 1100001000000000
          -405 -700 -96 callsubr
        </CharString>
        <CharString name="Ndotaccent">
          54 callsubr
          32 84 hstemhm
          183 callsubr
          167 85 40 39 50 39 hintmask 11011011
          -100 callgsubr
          hintmask 00100100
          -268 97 -17 callsubr
        </CharString>
        <CharString name="Ndotbelow">
          72 callsubr
          hstemhm
          183 callsubr
          26 85 181 39 50 39 hintmask 01111011
          -100 callgsubr
          hintmask 10000100
          -409 -752 rmoveto
          23 3 -15 -98 callsubr
          endchar
        </CharString>
        <CharString name="Ntilde">
          54 callsubr
          32 -15 callgsubr
          194 callgsubr
          hintmask 1100001111000000
          -100 callgsubr
          hintmask 0000010000000000
          -131 136 -26 callgsubr
          hintmask 0000100000000000
          -86 callgsubr
          hintmask 0010010000000000
          -102 callgsubr
          hintmask 0001000000000000
          -46 callsubr
        </CharString>
        <CharString name="Nu">
          116 callsubr
          194 callgsubr
          vstem
          -100 callgsubr
          endchar
        </CharString>
        <CharString name="O">
          77 callsubr
          hstem
          -104 callgsubr
          endchar
        </CharString>
        <CharString name="OE">
          -31 callsubr
        </CharString>
        <CharString name="OE.dup">
          -31 callsubr
        </CharString>
        <CharString name="Oacute">
          304 237 callsubr
          hintmask 11000000
          -104 callgsubr
          hintmask 00110000
          -127 429 -107 callgsubr
        </CharString>
        <CharString name="Obreve">
          77 callsubr
          31 47 51 -20 hstemhm
          hintmask 11000000
          -104 callgsubr
          hintmask 00110000
          -58 411 -103 callgsubr
          endchar
        </CharString>
        <CharString name="Ocaron">
          77 callsubr
          107 -20 -13 callgsubr
          -91 390 -99 callgsubr
        </CharString>
        <CharString name="Ocircumflex">
          77 callsubr
          42 -21 -13 callgsubr
          -98 348 -107 callsubr
          endchar
        </CharString>
        <CharString name="Ocircumflexacute">
          77 callsubr
          42 -21 226 -20 hstemhm
          hintmask 11000000
          -104 callgsubr
          hintmask 00110000
          -98 348 -107 callsubr
          -13 177 -107 callgsubr
        </CharString>
        <CharString name="Ocircumflexdotbelow">
          304 202 callgsubr
          42 -21 hstemhm
          339 85 hintmask 01110000
          -104 callgsubr
          -98 348 -107 callsubr
          hintmask 10001000
          -238 -829 rmoveto
          23 3 -15 -98 callsubr
          endchar
        </CharString>
        <CharString name="Ocircumflexgrave">
          77 callsubr
          42 -21 -13 callgsubr
          -98 348 -107 callsubr
          -23 116 -66 callgsubr
        </CharString>
        <CharString name="Ocircumflexhookabove">
          77 callsubr
          42 -21 86 105 callsubr
          554 159 callsubr
          hintmask 1100000000000000
          -104 callgsubr
          hintmask 0010000100000000
          -98 348 -107 callsubr
          76 209 rmoveto
          3 21 -7 253 callgsubr
          hintmask 0000110010000000
          -54 callgsubr
          hintmask 0001000100000000
          -43 -22 -35 -27 -7 -42 rrcurveto
          hintmask 0000001000000000
          -4 -19 rlineto
          hintmask 0001000010000000
          135 callsubr
          hintmask 0000001000000000
          135 callgsubr
          hintmask 0001000100000000
          31 callsubr
        </CharString>
        <CharString name="Ocircumflextilde">
          77 callsubr
          42 -21 36 49 41 -15 callgsubr
          hintmask 11000000
          -104 callgsubr
          hintmask 00110001
          -98 348 -107 callsubr
          60 185 -26 callgsubr
          hintmask 00000010
          -86 callgsubr
          hintmask 00001001
          -102 callgsubr
          hintmask 00000100
          -46 callsubr
        </CharString>
        <CharString name="Odblgrave">
          77 callsubr
          52 -21 118 -20 hstemhm
          hintmask 11000000
          -104 callgsubr
          hintmask 00110000
          -78 365 -77 callgsubr
        </CharString>
        <CharString name="Odieresis">
          77 callsubr
          21 74 hstemhm
          383 213 callsubr
          hintmask 11000000
          -104 callgsubr
          hintmask 00111000
          -302 363 -76 callgsubr
        </CharString>
        <CharString name="Odotbelow">
          304 202 callgsubr
          hstemhm
          339 85 hintmask 01100000
          -104 callgsubr
          hintmask 10010000
          -336 -481 rmoveto
          23 3 -15 -98 callsubr
          endchar
        </CharString>
        <CharString name="Ograve">
          304 237 callsubr
          hintmask 11000000
          -104 callgsubr
          hintmask 00110000
          -138 368 rmoveto
          -101 callsubr
        </CharString>
        <CharString name="Ohookabove">
          77 callsubr
          32 105 callsubr
          450 39 callgsubr
          hintmask 1100000000000000
          -104 callgsubr
          hintmask 0011101010000000
          -127 482 -70 callsubr
          hintmask 0010010000000000
          -34 callgsubr
          hintmask 0010001100000000
          8 callsubr
        </CharString>
        <CharString name="Ohorn">
          303 74 callgsubr
          6 44 42 -20 hstem
          18 callsubr
          -82 callgsubr
          endchar
        </CharString>
        <CharString name="Ohornacute">
          303 74 callgsubr
          6 44 2 -21 61 -20 79 -20 hstemhm
          hintmask 00011000
          18 callsubr
          rrcurveto
          hintmask 11100000
          -82 callgsubr
          hintmask 00010100
          -154 428 -107 callgsubr
        </CharString>
        <CharString name="Ohorndotbelow">
          303 202 callgsubr
          6 44 42 -20 hstemhm
          338 85 hintmask 01111000
          18 callsubr
          -82 callgsubr
          hintmask 10000100
          -335 -482 rmoveto
          23 3 -15 -98 callsubr
          endchar
        </CharString>
        <CharString name="Ohorngrave">
          303 74 callgsubr
          6 44 2 -21 61 -20 79 -20 hstemhm
          hintmask 00011000
          18 callsubr
          rrcurveto
          hintmask 11100000
          -82 callgsubr
          hintmask 00010100
          -136 367 rmoveto
          -101 callsubr
        </CharString>
        <CharString name="Ohornhookabove">
          303 74 callgsubr
          6 44 -18 37 23 -20 140 37 hstemhm
          450 39 callgsubr
          hintmask 1110100000000000
          18 callsubr
          -82 callgsubr
          hintmask 0001011010100000
          -125 481 -70 callsubr
          hintmask 0010000100000000
          -3 -19 rlineto
          hintmask 0001000000000000
          -10 -2 7 -8 11 hhcurveto
          hintmask 0010000100000000
          10 9 8 10 2 hvcurveto
          hintmask 0001000011000000
          8 callsubr
        </CharString>
        <CharString name="Ohorntilde">
          303 74 callgsubr
          6 44 -29 -15 callgsubr
          hintmask 11100000
          18 callsubr
          -82 callgsubr
          hintmask 00000010
          -86 406 -26 callgsubr
          hintmask 00000100
          -86 callgsubr
          hintmask 00010010
          -102 callgsubr
          hintmask 00001000
          -46 callsubr
        </CharString>
        <CharString name="Ohungarumlaut">
          77 callsubr
          52 -21 118 -20 hstemhm
          hintmask 11000000
          -104 callgsubr
          hintmask 00110000
          -253 427 -11 callgsubr
        </CharString>
        <CharString name="Omacron">
          77 callsubr
          41 46 -13 callgsubr
          -52 368 -93 callsubr
        </CharString>
        <CharString name="Omega">
          -8 callsubr
        </CharString>
        <CharString name="Omicron">
          77 callsubr
          hstem
          -104 callgsubr
          endchar
        </CharString>
        <CharString name="Oogonek">
          304 -209 37 0 45 115 45 -44 101 callsubr
          3 callgsubr
          endchar
        </CharString>
        <CharString name="Oogonekacute">
          304 -209 37 0 45 115 45 -44 44 545 44 52 -21 120 -20 3 callgsubr
          hintmask 00000110
          -127 429 -107 callgsubr
        </CharString>
        <CharString name="Orogate">
          304 810 305 rmoveto
          28 166 -120 140 -184 10 18 113 rcurveline
          12 -10 10 -12 -11 -9 -8 -11 -1 vhcurveto
          -20 -116 -189 -10 -165 -142 -27 -163 rlinecurve
          -28 -166 119 -140 185 -10 -18 -113 231 callgsubr
          116 188 10 166 142 27 163 rlinecurve
          -50 12 rmoveto
          -154 -26 -153 -130 -167 hhcurveto
          -168 -110 131 153 26 hvcurveto
          142 24 151 119 167 hhcurveto
          167 113 -119 -142 -24 hvcurveto
          endchar
        </CharString>
        <CharString name="Oslash">
          304 -67 -21 77 101 callsubr
          77 -20 hstem
          108 39 624 39 vstem
          -53 callgsubr
          endchar
        </CharString>
        <CharString name="Oslash.dup">
          304 -67 -21 77 101 callsubr
          77 -20 hstem
          108 39 624 39 vstem
          -53 callgsubr
          endchar
        </CharString>
        <CharString name="Oslashacute">
          304 -67 -21 77 101 callsubr
          52 -21 46 -20 94 -20 hstemhm
          108 39 624 39 hintmask 11101011
          -53 callgsubr
          hintmask 00010100
          -138 440 -107 callgsubr
        </CharString>
        <CharString name="Otilde">
          77 callsubr
          21 -15 callgsubr
          hintmask 11000000
          -104 callgsubr
          hintmask 00000100
          -59 407 -15 callsubr
        </CharString>
        <CharString name="P">
          7 callgsubr
        </CharString>
        <CharString name="Phi">
          54 callsubr
          hstemhm
          109 52 198 53 -34 53 -45 53 -19 53 -45 53 -34 53 198 52 hintmask 0000000100000000
          750 305 rmoveto
          15 89 -141 53 -143 6 rrcurveto
          hintmask 0100000010000000
          19 114 rlineto
          89 -63 callsubr
          -231 hlineto
          -13 -19 62 callsubr
          12 hhcurveto
          89 hlineto
          hintmask 0010000100000000
          -19 -114 -149 -6 -156 -56 -14 -85 rlinecurve
          hintmask 0000100000000000
          -15 -89 141 -53 143 -6 rrcurveto
          hintmask 1001000000000000
          -19 -114 rlineto
          -89 -72 callsubr
          231 -64 callsubr
          -89 hlineto
          hintmask 0010100001000000
          19 114 149 6 156 56 14 85 rlinecurve
          -364 -102 rmoveto
          -81 2 -156 31 12 70 rrcurveto
          hintmask 0000001000000000
          11 66 158 34 90 2 rrcurveto
          hintmask 0000010000000000
          278 -102 rmoveto
          -12 -70 -166 -31 -81 -2 rrcurveto
          hintmask 0000001001000000
          34 205 89 -2 147 -34 -11 -66 rlinecurve
          endchar
        </CharString>
        <CharString name="Pi">
          116 callsubr
          250 callsubr
          vstem
          716 -70 callgsubr
          88 523 rlineto
          65 27 callsubr
          -603 -58 callsubr
          -20 callsubr
          88 523 245 callgsubr
          -88 -523 -40 callgsubr
          endchar
        </CharString>
        <CharString name="Psi">
          304 0 44 114 44 233 44 88 44 hstemhm
          147 53 189 53 -34 53 -45 53 8 53 hintmask 0111100110000000
          835 456 rmoveto
          23 4 -19 0 -10 hhcurveto
          -44 -24 -20 -21 -23 hvcurveto
          -26 -25 -7 -33 -4 -22 -21 -103 -90 -44 -102 -9 61 365 rcurveline
          89 -63 callsubr
          -231 144 callgsubr
          -22 -3 133 callgsubr
          89 hlineto
          -61 -365 -111 10 -63 49 12 100 rlinecurve
          97 12 -60 21 -41 hhcurveto
          -8 -20 -28 callsubr
          -3 -16 13 -4 4 -1 63 -6 -5 -40 -5 -35 -5 -41 13 -62 35 -34 rrcurveto
          hintmask 0100001000000000
          48 -43 50 -10 67 -6 rrcurveto
          hintmask 1000010000000000
          -19 -114 129 callgsubr
          hintmask 0110001000000000
          19 114 138 11 110 62 25 125 rlinecurve
          6 29 10 44 62 6 11 1 10 7 2 13 rrcurveto
          endchar
        </CharString>
        <CharString name="Q">
          304 -122 -21 132 101 callsubr
          hstem
          108 52 412 52 134 52 vstem
          810 305 rmoveto
          173 29 -130 144 -197 hhcurveto
          222 callgsubr
          130 -144 197 hhcurveto
          29 34 3 10 41 hvcurveto
          2 7 5 0 3 hhcurveto
          15 -19 84 -113 rlineto
          -15 10 9 0 18 hhcurveto
          10 13 0 8 1 hvcurveto
          1 3 -11 14 -5 9 -98 131 rcurveline
          188 94 41 133 9 56 rrcurveto
          -52 1 rmoveto
          -18 -106 -82 -95 -113 -46 -45 57 -14 22 -9 11 rrcurveto
          8 -8 -1 1 -20 hhcurveto
          -14 -8 0 -11 -2 hvcurveto
          73 -105 rlineto
          -48 -9 -35 0 0 vvcurveto
          133 callsubr
          endchar
        </CharString>
        <CharString name="R">
          64 callgsubr
          20 52 cntrmask 11100000
          hintmask 11111011
          -91 callgsubr
          hintmask 11110111
          -79 callsubr
          hintmask 11101010
          32 callgsubr
          endchar
        </CharString>
        <CharString name="Racute">
          64 callgsubr
          20 52 cntrmask 11100000
          hintmask 11111011
          -91 callgsubr
          hintmask 11110111
          -79 callsubr
          hintmask 11101010
          32 callgsubr
          hintmask 11100000
          -43 299 -107 callgsubr
        </CharString>
        <CharString name="Rcaron">
          64 callgsubr
          20 52 cntrmask 11100000
          hintmask 11111011
          -91 callgsubr
          hintmask 11110111
          -79 callsubr
          hintmask 11101010
          32 callgsubr
          hintmask 11100000
          -7 260 -99 callgsubr
        </CharString>
        <CharString name="Rcedilla">
          17 callgsubr
          40 63 249 52 20 52 cntrmask 1110000000000000
          hintmask 1111100110000000
          -91 callgsubr
          hintmask 1111011110000000
          -79 callsubr
          hintmask 1110101100000000
          32 callgsubr
          -249 -559 -96 callsubr
        </CharString>
        <CharString name="Rcommaaccent">
          17 callgsubr
          40 63 249 52 20 52 cntrmask 1110000000000000
          hintmask 1111100110000000
          -91 callgsubr
          hintmask 1111011110000000
          -79 callsubr
          hintmask 1110100100000000
          32 callgsubr
          hintmask 1110001000000000
          -249 -559 -96 callsubr
        </CharString>
        <CharString name="Rdblgrave">
          64 callgsubr
          20 52 cntrmask 11100000
          hintmask 11111011
          -91 callgsubr
          hintmask 11110111
          -79 callsubr
          hintmask 11101010
          32 callgsubr
          hintmask 11100000
          -23 235 -77 callgsubr
        </CharString>
        <CharString name="Rdotaccent">
          17 callgsubr
          157 85 110 52 20 52 cntrmask 1110000000000000
          hintmask 1111100110000000
          -91 callgsubr
          hintmask 1111010110000000
          -79 callsubr
          hintmask 1110100100000000
          32 callgsubr
          hintmask 1110001000000000
          -110 249 -17 callsubr
        </CharString>
        <CharString name="Rdotbelow">
          17 callgsubr
          14 85 253 52 20 52 cntrmask 1110000000000000
          hintmask 1111100110000000
          -91 callgsubr
          hintmask 1111010110000000
          -79 callsubr
          hintmask 1110100100000000
          32 callgsubr
          hintmask 1110001000000000
          -253 -611 rmoveto
          23 3 -15 -98 callsubr
          endchar
        </CharString>
        <CharString name="Rdotbelowmacron">
          17 callgsubr
          14 85 253 52 20 52 cntrmask 1110000000000000
          hintmask 1111100110000000
          -91 callgsubr
          hintmask 1111010110000000
          -79 callsubr
          hintmask 1110101100000000
          32 callgsubr
          -253 -611 rmoveto
          23 3 -15 -98 callsubr
          hintmask 1110001000000000
          285 849 -93 callsubr
        </CharString>
        <CharString name="Rho">
          7 callgsubr
        </CharString>
        <CharString name="S">
          70 210 callgsubr
          119 49 vstem
          -95 callsubr
          45 24 hvcurveto
          -50 59 89 callsubr
          endchar
        </CharString>
        <CharString name="S_S">
          654 74 callgsubr
          hstemhm
          110 49 -31 48 535 49 -31 48 -48 49 hintmask 01010000
          540 162 rmoveto
          13 78 -51 69 -85 19 -148 32 rcurveline
          -29 6 -74 32 12 69 rrcurveto
          55 9 69 56 93 hhcurveto
          115 38 -58 -74 1 hvcurveto
          -14 1 0 -12 22 hhcurveto
          27 3 18 15 3 hvcurveto
          22 136 122 callsubr
          -15 -5 -8 -51 -25 hvcurveto
          53 -53 -69 6 -40 hhcurveto
          -122 -94 -77 -82 -14 hvcurveto
          hintmask 10100000
          -8 -49 20 -35 19 -21 34 -37 34 -7 89 -20 43 -9 rcurveline
          63 -14 16 -3 30 -30 rrcurveto
          0 30 -32 -8 -48 vhcurveto
          -60 -10 -65 -65 -101 hhcurveto
          hintmask 00010000
          -59 -52 13 17 -27 hvcurveto
          -36 25 -14 27 6 50 rrcurveto
          hintmask 11100010
          153 callgsubr
          24 hvcurveto
          -50 60 82 -5 47 hhcurveto
          131 90 87 86 14 hvcurveto
          601 hmoveto
          13 78 -52 69 -85 19 -147 32 rcurveline
          -29 6 -75 32 12 69 rrcurveto
          55 9 70 56 93 hhcurveto
          114 39 -58 -74 1 hvcurveto
          -14 0 -12 23 27 3 18 15 3 vhcurveto
          22 136 122 callsubr
          -16 -4 -8 -51 -26 hvcurveto
          53 -53 -68 6 -40 hhcurveto
          -123 -93 -77 -82 -14 hvcurveto
          hintmask 10001000
          -8 -49 19 -35 20 -21 33 -37 35 -7 88 -20 44 -9 rcurveline
          63 -14 16 -3 30 -30 rrcurveto
          0 30 -32 -8 -48 vhcurveto
          -60 -10 -65 -65 -101 hhcurveto
          hintmask 00000100
          -59 -52 13 17 -27 hvcurveto
          -36 25 -14 27 6 50 rrcurveto
          hintmask 10001000
          153 callgsubr
          23 hvcurveto
          -50 60 89 callsubr
          endchar
        </CharString>
        <CharString name="Sacute">
          70 237 callsubr
          119 49 hintmask 11001000
          -95 callsubr
          45 24 hvcurveto
          -50 59 89 callsubr
          hintmask 00110000
          -33 584 -107 callgsubr
        </CharString>
        <CharString name="Scaron">
          70 74 callgsubr
          107 -20 hstemhm
          119 49 hintmask 11010000
          -95 callsubr
          45 24 hvcurveto
          -50 59 89 callsubr
          hintmask 00100000
          3 545 -99 callgsubr
        </CharString>
        <CharString name="Scedilla">
          70 252 callgsubr
          119 53 0 53 0 53 cntrmask 00011100
          -95 callsubr
          44 23 hvcurveto
          51 -41 63 -10 55 -3 -4 -26 rcurveline
          171 callgsubr
          -2 callsubr
          9 52 -35 28 -48 12 3 19 rcurveline
          113 13 77 79 13 79 rrcurveto
          endchar
        </CharString>
        <CharString name="Scircumflex">
          70 74 callgsubr
          42 -21 hstemhm
          119 49 hintmask 11010000
          -95 callsubr
          45 24 hvcurveto
          -50 59 89 callsubr
          hintmask 00100000
          -4 503 -107 callsubr
          endchar
        </CharString>
        <CharString name="Sdotbelow">
          70 202 callgsubr
          hstemhm
          119 49 54 85 hintmask 01110000
          -95 callsubr
          45 24 hvcurveto
          -50 59 89 callsubr
          hintmask 10001000
          -242 -326 rmoveto
          23 3 -15 -98 callsubr
          endchar
        </CharString>
        <CharString name="Sigma">
          0 46 521 44 hstemhm
          665 52 0 52 -38 52 hintmask 11101000
          705 33 rmoveto
          12 77 rlineto
          15 3 3 18 -25 hhcurveto
          -27 -3 -17 -16 -3 hvcurveto
          -10 -64 rlineto
          -504 hlineto
          241 239 rlineto
          11 11 2 9 0 vvcurveto
          1 8 -3 5 -5 7 -166 242 rcurveline
          510 hlineto
          -11 -64 0 callsubr
          12 75 rlineto
          hintmask 11010000
          25 5 -3 8 -28 hhcurveto
          -577 hlineto
          -12 -20 -28 callsubr
          -1 -8 2 -4 5 -8 180 -263 rcurveline
          -276 -274 -2 -4 -2 -3 -1 -4 rlinecurve
          -20 -3 22 0 10 hhcurveto
          577 215 callsubr
        </CharString>
        <CharString name="T">
          116 callsubr
          119 callsubr
          vstem
          -90 callgsubr
          endchar
        </CharString>
        <CharString name="T_uni0303">
          54 callsubr
          32 -15 callgsubr
          119 callsubr
          hintmask 1100001111000000
          -90 callgsubr
          hintmask 0000010000000000
          -132 221 -26 callgsubr
          hintmask 0000100010000000
          -86 callgsubr
          hintmask 0010010100000000
          -102 callgsubr
          hintmask 0001000000000000
          -46 callsubr
        </CharString>
        <CharString name="T_uni0308">
          204 callsubr
          hstemhm
          121 52 181 75 -70 53 35 53 57 75 119 53 hintmask 1101011010000000
          -90 callgsubr
          hintmask 0010100100000000
          -375 177 -76 callgsubr
        </CharString>
        <CharString name="Tau">
          116 callsubr
          119 callsubr
          vstem
          -90 callgsubr
          endchar
        </CharString>
        <CharString name="Tcaron">
          168 callsubr
          119 callsubr
          hintmask 11011110
          -90 callgsubr
          hintmask 00100000
          -164 204 -99 callgsubr
        </CharString>
        <CharString name="Tcedilla">
          -217 45 172 66 callsubr
          hstemhm
          121 52 56 53 77 53 10 52 -27 53 251 53 hintmask 0111010100000000
          804 503 rmoveto
          12 75 -14 callgsubr
          -618 hlineto
          -27 -7 -6 -27 -5 hvcurveto
          -12 -75 0 callsubr
          11 64 rlineto
          263 hlineto
          172 callsubr
          -105 49 callsubr
          106 hlineto
          -2 -6 -5 -34 171 callgsubr
          rlinecurve
          hintmask 1100111000000000
          109 callsubr
          3 12 1 10 1 8 rrcurveto
          105 83 callsubr
          22 3 87 callsubr
          -105 hlineto
          hintmask 0010000110000000
          84 callsubr
          262 17 callsubr
          endchar
        </CharString>
        <CharString name="Tdotbelow">
          72 callsubr
          hstemhm
          121 52 136 85 -35 53 35 53 251 53 hintmask 01110111
          -90 callgsubr
          hintmask 10000100
          -410 -667 rmoveto
          145 callsubr
          hintmask 10001000
          48 callgsubr
        </CharString>
        <CharString name="Theta">
          304 -11 44 247 51 247 44 hstem
          108 52 598 52 cntrmask 11100000
          810 305 rmoveto
          173 29 -130 144 -197 hhcurveto
          222 callgsubr
          130 -144 197 180 callsubr
          -52 1 rmoveto
          -150 -25 -153 -123 -166 hhcurveto
          133 callsubr
          -84 -25 rmoveto
          8 49 240 callgsubr
          -9 -16 0 -32 -8 hvcurveto
          -332 hlineto
          31 3 -15 1 -9 hhcurveto
          -26 -3 -18 -15 -3 hvcurveto
          -8 -49 rlineto
          -19 callgsubr
          9 16 0 32 8 hvcurveto
          332 hlineto
          -31 -3 15 -1 9 94 callgsubr
          endchar
        </CharString>
        <CharString name="Thorn">
          129 0 44 113 44 270 44 52 44 hstem
          607 336 188 callgsubr
          -110 hlineto
          9 52 rlineto
          65 -63 callsubr
          -182 hlineto
          -12 -20 -61 callsubr
          -12 -20 -87 callsubr
          182 -57 callgsubr
          19 113 rlineto
          110 hlineto
          141 119 83 96 16 hvcurveto
          -53 hmoveto
          -71 -12 -101 -64 -119 hhcurveto
          -93 hlineto
          45 270 rlineto
          93 hlineto
          120 79 -64 -71 -12 hvcurveto
          endchar
        </CharString>
        <CharString name="Tlinebelow">
          -173 46 127 66 callsubr
          hstemhm
          119 callsubr
          hintmask 01111110
          -90 callgsubr
          hintmask 10000000
          -264 -654 -93 callsubr
        </CharString>
        <CharString name="U">
          114 callgsubr
          hstem
          117 callgsubr
          vstem
          -106 callsubr
          endchar
        </CharString>
        <CharString name="U_uni032F">
          -178 -21 51 47 90 140 callsubr
          121 callgsubr
          hintmask 00111100
          -106 callsubr
          hintmask 11000000
          -264 -764 -50 callsubr
        </CharString>
        <CharString name="Uacute">
          -11 44 534 44 63 -21 120 -20 121 callgsubr
          hintmask 11001100
          -106 callsubr
          hintmask 00110000
          -183 158 -107 callgsubr
        </CharString>
        <CharString name="Ubreve">
          114 callgsubr
          42 47 51 -20 121 callgsubr
          hintmask 11001100
          -106 callsubr
          hintmask 00110000
          -114 140 -103 callgsubr
          endchar
        </CharString>
        <CharString name="Ucaron">
          114 callgsubr
          118 -20 121 callgsubr
          hintmask 11011000
          -106 callsubr
          hintmask 00100000
          -147 119 -99 callgsubr
        </CharString>
        <CharString name="Ucircumflex">
          114 callgsubr
          53 -21 121 callgsubr
          hintmask 11011000
          -106 callsubr
          hintmask 00100000
          -154 77 -107 callsubr
          endchar
        </CharString>
        <CharString name="Udblgrave">
          114 callgsubr
          63 -21 118 -20 121 callgsubr
          hintmask 11001100
          -106 callsubr
          hintmask 00110000
          -134 94 -77 callgsubr
        </CharString>
        <CharString name="Udieresis">
          207 callsubr
          143 callgsubr
          hintmask 11010010
          -106 callsubr
          hintmask 00101100
          -4 callgsubr
          endchar
        </CharString>
        <CharString name="Udieresisacute">
          -11 44 534 44 32 74 62 -21 120 -20 143 callgsubr
          hintmask 1100010010000000
          -106 callsubr
          hintmask 0011101100000000
          -4 callgsubr
          -10 171 -107 callgsubr
        </CharString>
        <CharString name="Udieresiscaron">
          207 callsubr
          117 -20 143 callgsubr
          hintmask 11001001
          -106 callsubr
          hintmask 00110111
          -4 callgsubr
          26 132 -99 callgsubr
        </CharString>
        <CharString name="Udieresisgrave">
          -11 44 534 44 32 74 62 -21 120 -20 143 callgsubr
          hintmask 1100010010000000
          -106 callsubr
          hintmask 0011101100000000
          -4 callgsubr
          -21 110 rmoveto
          -101 callsubr
        </CharString>
        <CharString name="Udotbelow">
          -206 84 111 140 callsubr
          hstemhm
          237 53 42 85 240 53 hintmask 01110100
          -106 callsubr
          hintmask 10001000
          -393 -752 rmoveto
          23 3 -15 -98 callsubr
          endchar
        </CharString>
        <CharString name="Ugrave">
          -11 44 534 44 63 -21 120 -20 121 callgsubr
          hintmask 11001100
          -106 callsubr
          hintmask 00110000
          -194 97 rmoveto
          -101 callsubr
        </CharString>
        <CharString name="Uhookabove">
          114 callgsubr
          43 105 callsubr
          237 53 153 39 callgsubr
          31 53 hintmask 1100100000100000
          -106 callsubr
          hintmask 0011010101000000
          -184 211 -70 callsubr
          hintmask 0010001000000000
          -34 callgsubr
          hintmask 0010000110000000
          8 callsubr
        </CharString>
        <CharString name="Uhorn">
          114 callgsubr
          17 44 42 -20 140 callgsubr
          305 53 hintmask 11110111
          -71 callsubr
          hintmask 01001010
          57 callsubr
          hintmask 00000100
          -61 -366 rlineto
          hintmask 10001001
          -9 callsubr
          endchar
        </CharString>
        <CharString name="Uhornacute">
          114 callgsubr
          17 44 2 -21 61 -20 79 -20 140 callgsubr
          305 53 hintmask 1110100111000000
          -71 callsubr
          hintmask 0100001010000000
          57 callsubr
          hintmask 0000000100000000
          -61 -366 rlineto
          hintmask 1000001001000000
          -9 callsubr
          hintmask 0001010000000000
          -205 92 -107 callgsubr
        </CharString>
        <CharString name="Uhorndotbelow">
          -206 84 111 140 callsubr
          17 44 42 -20 140 callgsubr
          19 85 201 53 hintmask 0111101101000000
          -71 callsubr
          hintmask 0010010100000000
          57 callsubr
          hintmask 0000001000000000
          -61 -366 rlineto
          hintmask 0100010001000000
          -9 callsubr
          hintmask 1000000010000000
          -408 -818 rmoveto
          23 3 -15 -98 callsubr
          endchar
        </CharString>
        <CharString name="Uhorngrave">
          114 callgsubr
          17 44 2 -21 61 -20 79 -20 140 callgsubr
          305 53 hintmask 1110100111000000
          -71 callsubr
          hintmask 0100001010000000
          57 callsubr
          hintmask 0000000100000000
          -61 -366 rlineto
          hintmask 1000001001000000
          -9 callsubr
          hintmask 0001010000000000
          -186 31 rmoveto
          -101 callsubr
        </CharString>
        <CharString name="Uhornhookabove">
          114 callgsubr
          17 44 -18 37 23 -20 140 37 140 callgsubr
          153 39 callgsubr
          -31 53 hintmask 1110100110000010
          -71 callsubr
          hintmask 0100001010000000
          57 callsubr
          hintmask 0000000100000000
          -61 -366 rlineto
          hintmask 1001001000000010
          -9 callsubr
          hintmask 0001010001010100
          -176 145 -70 callsubr
          hintmask 0010000000100000
          -3 -19 rlineto
          hintmask 0001000000000000
          -10 -2 7 -8 11 hhcurveto
          hintmask 0010000000100000
          10 9 8 10 2 hvcurveto
          hintmask 0001000000011000
          8 callsubr
        </CharString>
        <CharString name="Uhorntilde">
          114 callgsubr
          17 44 -29 48 -16 49 -33 48 -40 49 140 callgsubr
          305 53 hintmask 1110000011100000
          -71 callsubr
          hintmask 0100000101000000
          57 callsubr
          hintmask 0000000010000000
          -61 -366 rlineto
          hintmask 1000000100100000
          -9 callsubr
          hintmask 0000001000000000
          -107 70 -26 callgsubr
          hintmask 0000010000000000
          -86 callgsubr
          hintmask 0001001000000000
          -102 callgsubr
          hintmask 0000100000000000
          -46 callsubr
        </CharString>
        <CharString name="Uhungarumlaut">
          114 callgsubr
          63 -21 118 -20 121 callgsubr
          hintmask 11001100
          -106 callsubr
          hintmask 00110000
          -309 156 -11 callgsubr
        </CharString>
        <CharString name="Umacron">
          114 callgsubr
          52 46 121 callgsubr
          hintmask 11011000
          -106 callsubr
          hintmask 00100000
          -108 97 -93 callsubr
        </CharString>
        <CharString name="Uogonek">
          -209 37 161 44 -43 43 534 44 hstemhm
          237 53 15 42 0 42 268 53 hintmask 11011011
          810 588 rmoveto
          -53 callsubr
          -183 hlineto
          -12 -19 62 callsubr
          11 hhcurveto
          65 hlineto
          -60 -358 rlineto
          -124 -21 -113 -52 -78 hhcurveto
          -83 -92 55 121 20 hvcurveto
          60 358 rlineto
          64 -63 callsubr
          -182 -34 callsubr
          -61 -364 -18 -110 67 -80 122 -24 rlinecurve
          -50 -38 -27 -35 -6 -37 6 callsubr
          5 6 1 13 -6 5 -7 6 -14 -6 -5 158 callgsubr
          hintmask 00110101
          -22 -30 195 callgsubr
          8 45 38 40 40 28 117 4 121 88 20 121 61 364 rcurveline
          29 callsubr
          endchar
        </CharString>
        <CharString name="Upsilon">
          304 0 44 543 35 hstemhm
          265 53 71 53 -8 53 -14 51 hintmask 01100100
          842 498 rmoveto
          68 11 -61 56 -86 hhcurveto
          -114 -64 -85 -144 -55 hvcurveto
          143 -4 -35 86 -116 hhcurveto
          -86 -81 -56 -68 -11 hvcurveto
          255 callgsubr
          7 hhcurveto
          19 8 8 9 1 hvcurveto
          56 9 54 39 62 hhcurveto
          hintmask 00001000
          129 8 -170 -105 -18 hvcurveto
          hintmask 10110100
          -45 -268 129 callgsubr
          hintmask 01001000
          45 268 rlineto
          112 19 65 163 126 hhcurveto
          58 45 -35 -61 -10 hvcurveto
          -9 -2 6 -7 18 hhcurveto
          7 19 0 23 4 hvcurveto
          endchar
        </CharString>
        <CharString name="Uring">
          114 callgsubr
          12 29 78 29 121 callgsubr
          hintmask 11001100
          -106 callsubr
          hintmask 00110000
          -225 103 -18 callgsubr
          endchar
        </CharString>
        <CharString name="Utilde">
          234 callsubr
          -15 callgsubr
          237 53 367 53 hintmask 11000011
          -106 callsubr
          hintmask 00000100
          -115 136 -15 callsubr
        </CharString>
        <CharString name="V">
          -8 44 531 44 hstem
          828 588 rmoveto
          54 callgsubr
          -158 hlineto
          -13 -65 callgsubr
          69 callgsubr
          53 hlineto
          -296 -531 rlineto
          -14 hlineto
          -120 531 rlineto
          54 62 callgsubr
          -20 0 -13 hhcurveto
          -158 144 callgsubr
          -22 -3 133 callgsubr
          48 hlineto
          123 -544 rlineto
          -22 4 6 -9 33 hhcurveto
          19 hlineto
          21 16 0 30 16 hvcurveto
          305 545 rlineto
          48 112 callgsubr
        </CharString>
        <CharString name="W">
          537 -8 44 531 44 hstem
          -81 callgsubr
          endchar
        </CharString>
        <CharString name="Wacute">
          537 -8 44 531 145 callgsubr
          hintmask 11000000
          -81 callgsubr
          hintmask 00110000
          -379 158 -107 callgsubr
        </CharString>
        <CharString name="Wcircumflex">
          537 -8 44 531 44 53 -21 hstemhm
          hintmask 11000000
          -81 callgsubr
          hintmask 00100000
          -350 77 -107 callsubr
          endchar
        </CharString>
        <CharString name="Wdieresis">
          537 -8 44 531 44 32 74 hstemhm
          500 213 callsubr
          hintmask 11011000
          -81 callgsubr
          hintmask 00111000
          -554 83 callgsubr
        </CharString>
        <CharString name="Wgrave">
          537 -8 44 531 145 callgsubr
          hintmask 11000000
          -81 callgsubr
          hintmask 00110000
          -390 97 rmoveto
          -101 callsubr
        </CharString>
        <CharString name="X">
          -10 callgsubr
        </CharString>
        <CharString name="Xi">
          187 0 42 255 42 230 42 hstem
          143 53 vstem
          742 558 rmoveto
          3 20 -14 callgsubr
          -534 hlineto
          -26 -8 -6 -27 -5 hvcurveto
          -3 -20 rlineto
          -14 -2 -3 -19 26 hhcurveto
          27 2 17 27 5 hvcurveto
          493 hlineto
          -27 -5 -2 -17 27 hhcurveto
          26 3 19 14 2 hvcurveto
          -81 -525 rmoveto
          4 25 -19 callsubr
          -26 hhcurveto
          -27 -3 -17 -32 -5 hvcurveto
          -505 hlineto
          32 5 3 17 -27 hhcurveto
          -26 66 callgsubr
          -4 -25 rlineto
          -27 -5 5 -6 27 hhcurveto
          546 hlineto
          26 7 7 26 5 hvcurveto
          -64 248 rmoveto
          12 73 rlineto
          16 3 3 17 -26 hhcurveto
          -27 -3 -16 -32 -5 hvcurveto
          -295 hlineto
          32 5 3 16 -27 hhcurveto
          -26 -3 -17 -16 -3 hvcurveto
          -12 -73 rlineto
          -19 callgsubr
          27 3 17 32 6 hvcurveto
          295 hlineto
          -32 -6 -3 -17 86 callgsubr
          endchar
        </CharString>
        <CharString name="Y">
          54 callsubr
          hstemhm
          359 53 -19 53 hintmask 01010000
          -74 callgsubr
          hintmask 10100000
          -34 -201 -66 callsubr
          hintmask 01010000
          36 callgsubr
          endchar
        </CharString>
        <CharString name="Yacute">
          104 callsubr
          359 53 -19 53 hintmask 01000100
          -74 callgsubr
          hintmask 10001000
          -34 -201 -66 callsubr
          hintmask 01000100
          36 callgsubr
          hintmask 00110000
          -222 158 -107 callgsubr
        </CharString>
        <CharString name="Ycircumflex">
          54 callsubr
          53 -21 hstemhm
          359 53 -19 53 hintmask 01001000
          -74 callgsubr
          hintmask 10010000
          -34 -201 -66 callsubr
          hintmask 01001000
          36 callgsubr
          hintmask 00100000
          -193 77 -107 callsubr
          endchar
        </CharString>
        <CharString name="Ydieresis">
          204 callsubr
          hstemhm
          354 75 -70 53 -19 53 111 75 hintmask 01000100
          -74 callgsubr
          hintmask 10001000
          -34 -201 -66 callsubr
          hintmask 01000100
          36 callgsubr
          hintmask 00110010
          -397 83 callgsubr
        </CharString>
        <CharString name="Ydotbelow">
          72 callsubr
          hstemhm
          309 85 -35 53 -19 53 hintmask 00100100
          -74 callgsubr
          hintmask 01001000
          -34 -201 -66 callsubr
          hintmask 00100100
          36 callgsubr
          hintmask 10001000
          -432 -752 rmoveto
          145 callsubr
          hintmask 10010000
          48 callgsubr
        </CharString>
        <CharString name="Ygrave">
          104 callsubr
          359 53 -19 53 hintmask 01000100
          -74 callgsubr
          hintmask 10001000
          -34 -201 -66 callsubr
          hintmask 01000100
          36 callgsubr
          hintmask 00110000
          -233 97 rmoveto
          -101 callsubr
        </CharString>
        <CharString name="Yhookabove">
          54 callsubr
          43 105 callsubr
          359 53 -19 53 -25 39 callgsubr
          hintmask 0100010000000000
          -74 callgsubr
          hintmask 1000100000000000
          -34 -201 -66 callsubr
          hintmask 0100010000000000
          36 callgsubr
          hintmask 0011001010100000
          -222 211 rmoveto
          4 21 -8 21 -17 13 rrcurveto
          13 -17 -20 -7 callsubr
          17 19 3 22 rrcurveto
          endchar
        </CharString>
        <CharString name="Ytilde">
          54 callsubr
          32 -15 callgsubr
          359 53 -19 53 hintmask 01000001
          -74 callgsubr
          hintmask 10000010
          -34 -201 -66 callsubr
          hintmask 01000001
          36 callgsubr
          hintmask 00000100
          -154 136 13 callsubr
          hintmask 00100110
          -102 callgsubr
          hintmask 00010000
          -46 callsubr
        </CharString>
        <CharString name="Z">
          241 callgsubr
          hstemhm
          159 52 331 52 -38 53 hintmask 00001000
          49 callgsubr
          hintmask 11110000
          -58 callgsubr
          hintmask 10001000
          464 hlineto
          hintmask 00010000
          26 7 7 26 5 hvcurveto
          endchar
        </CharString>
        <CharString name="Zacute">
          129 104 callsubr
          159 52 331 52 -38 53 hintmask 00000010
          49 callgsubr
          hintmask 11001100
          -58 callgsubr
          hintmask 10000010
          464 hlineto
          hintmask 00000100
          26 7 7 26 5 hvcurveto
          hintmask 00110000
          -49 713 -107 callgsubr
        </CharString>
        <CharString name="Zcaron">
          129 168 callsubr
          159 52 331 52 -38 53 hintmask 00000100
          49 callgsubr
          hintmask 11011000
          -58 callgsubr
          hintmask 10000100
          464 hlineto
          hintmask 00001000
          26 7 7 26 5 hvcurveto
          hintmask 00100000
          -13 674 -99 callgsubr
        </CharString>
        <CharString name="Zdotaccent">
          241 callgsubr
          43 84 hstemhm
          159 52 183 85 63 52 -38 53 hintmask 00000010
          49 callgsubr
          hintmask 11010100
          -58 callgsubr
          hintmask 10000010
          464 hlineto
          hintmask 00000100
          26 7 7 26 5 hvcurveto
          hintmask 00101000
          -115 663 -17 callsubr
        </CharString>
        <CharString name="Zdotbelow">
          129 72 callsubr
          hstemhm
          159 52 40 85 206 52 -38 53 hintmask 00000010
          49 callgsubr
          hintmask 01110100
          -58 callgsubr
          hintmask 01000010
          464 hlineto
          hintmask 00000100
          26 7 7 26 5 hvcurveto
          hintmask 10001000
          -258 -197 rmoveto
          23 3 -15 -98 callsubr
          endchar
        </CharString>
        <CharString name="Zeta">
          241 callgsubr
          hstemhm
          159 52 331 52 -38 53 hintmask 00001000
          49 callgsubr
          hintmask 11110000
          -58 callgsubr
          hintmask 10001000
          464 hlineto
          hintmask 00010000
          26 7 7 26 5 hvcurveto
          endchar
        </CharString>
        <CharString name="a">
          35 callgsubr
          hstemhm
          hintmask 01100000
          -105 callgsubr
          endchar
        </CharString>
        <CharString name="aacute">
          35 callgsubr
          77 73 callsubr
          hintmask 01100000
          -105 callgsubr
          hintmask 00011000
          64 359 -107 callgsubr
        </CharString>
        <CharString name="abreve">
          35 callgsubr
          67 47 51 -20 hstemhm
          hintmask 01100000
          -105 callgsubr
          hintmask 00011000
          135 352 -103 callgsubr
          endchar
        </CharString>
        <CharString name="abreveacute">
          35 callgsubr
          68 47 191 -20 hstemhm
          hintmask 01100000
          -105 callgsubr
          hintmask 00011000
          135 353 -46 callgsubr
          -49 136 -107 callgsubr
        </CharString>
        <CharString name="abrevedotbelow">
          164 callgsubr
          67 47 51 -20 -25 callgsubr
          hintmask 01001100
          -17 -40 -46 0 -7 hhcurveto
          -68 -36 41 44 8 hvcurveto
          7 47 77 49 180 6 rrcurveto
          135 352 -103 callgsubr
          hintmask 10000010
          -254 -741 rmoveto
          23 3 -15 -98 callsubr
          endchar
        </CharString>
        <CharString name="abrevegrave">
          35 callgsubr
          68 47 51 -20 hstemhm
          hintmask 01100000
          -105 callgsubr
          hintmask 00011000
          135 353 -46 callgsubr
          -59 75 -66 callgsubr
        </CharString>
        <CharString name="abrevehookabove">
          35 callgsubr
          68 186 callsubr
          289 167 callgsubr
          0 37 11 39 -37 37 -33 callgsubr
          hintmask 0100000000000000
          -36 19 40 -1 41 hhcurveto
          22 19 0 23 4 hvcurveto
          -133 106 rmoveto
          -5 -26 -4 -27 -50 -21 rrcurveto
          hintmask 1000000001000000
          -17 -40 -46 0 -7 hhcurveto
          -68 -36 41 44 8 hvcurveto
          7 47 77 49 180 6 rrcurveto
          hintmask 0001100000010000
          135 353 rmoveto
          14 3 -7 9 -15 hhcurveto
          -11 -6 -6 -6 -4 hvcurveto
          -34 -13 -76 -5 -47 hhcurveto
          -48 -73 5 34 -3 hvcurveto
          6 -2 -4 6 -11 hhcurveto
          -14 -10 -9 -14 -3 hvcurveto
          hintmask 0001011100101010
          57 callgsubr
          hintmask 0000100001000000
          -43 -22 -36 -27 -7 -42 rrcurveto
          hintmask 0000100010000000
          -3 -19 rlineto
          135 callsubr
          135 callgsubr
          hintmask 0000110001000100
          3 19 3 18 19 115 callgsubr
          3 22 rrcurveto
          endchar
        </CharString>
        <CharString name="abrevetilde">
          -3 601 49 0 47 0 49 hstemhm
          cntrmask 11100000
          506 23 rmoveto
          21 -72 callgsubr
          -41 -9 5 7 -14 hvcurveto
          38 228 rlineto
          72 12 -41 79 -135 hhcurveto
          -40 -97 0 -66 -11 hvcurveto
          -25 -5 15 -13 20 hhcurveto
          14 23 8 30 6 hvcurveto
          19 3 26 3 39 hhcurveto
          81 49 -36 -88 -14 hvcurveto
          -189 -3 -120 -51 -15 -90 rrcurveto
          -68 -12 52 -61 94 hhcurveto
          65 53 19 24 37 hvcurveto
          -36 19 40 -1 41 hhcurveto
          22 19 0 23 4 hvcurveto
          -133 106 139 callsubr
          hintmask 11100000
          135 353 5 callgsubr
        </CharString>
        <CharString name="acaron">
          35 callgsubr
          176 -20 -38 callgsubr
          108 365 -92 callsubr
        </CharString>
        <CharString name="acircumflex">
          35 callgsubr
          78 -21 -38 callgsubr
          96 288 -94 callsubr
          endchar
        </CharString>
        <CharString name="acircumflexacute">
          35 callgsubr
          78 -21 226 -20 hstemhm
          hintmask 01100000
          -105 callgsubr
          hintmask 00011000
          95 289 -107 callsubr
          -13 177 -107 callgsubr
        </CharString>
        <CharString name="acircumflexdotbelow">
          164 callgsubr
          78 -21 -25 callgsubr
          hintmask 01001000
          -17 -40 -46 0 -7 hhcurveto
          -68 -36 41 44 8 hvcurveto
          7 47 77 49 180 6 rrcurveto
          96 288 -94 callsubr
          hintmask 10000100
          -215 -677 rmoveto
          23 3 -15 -98 callsubr
          endchar
        </CharString>
        <CharString name="acircumflexgrave">
          35 callgsubr
          78 -21 -38 callgsubr
          95 289 -107 callsubr
          -23 116 -66 callgsubr
        </CharString>
        <CharString name="acircumflexhookabove">
          35 callgsubr
          78 -21 86 105 callsubr
          376 159 callsubr
          -33 callgsubr
          hintmask 0100000010000000
          -36 19 40 -1 41 hhcurveto
          22 19 0 23 4 hvcurveto
          -133 106 rmoveto
          -5 -26 -4 -27 -50 -21 rrcurveto
          hintmask 1000000000000000
          -17 -40 -46 0 -7 hhcurveto
          -68 -36 41 44 8 hvcurveto
          7 47 77 49 180 6 rrcurveto
          hintmask 0001000010000000
          95 289 -60 callsubr
        </CharString>
        <CharString name="acircumflextilde">
          35 callgsubr
          78 -21 36 49 41 -15 callgsubr
          -33 callgsubr
          hintmask 0100000000000000
          -36 19 40 -1 41 hhcurveto
          22 19 0 23 4 hvcurveto
          -133 106 rmoveto
          -5 -26 -4 -27 -50 -21 rrcurveto
          hintmask 1000000000000000
          -17 -40 -46 0 -7 hhcurveto
          -68 -36 41 44 8 hvcurveto
          7 47 77 49 180 6 rrcurveto
          hintmask 0001100010000000
          95 289 -107 callsubr
          60 185 -26 callgsubr
          hintmask 0000000100000000
          -86 callgsubr
          hintmask 0000010010000000
          -102 callgsubr
          hintmask 0000001000000000
          -46 callsubr
        </CharString>
        <CharString name="acute">
          12 512 90 callsubr
          hstem
          460 584 -107 callgsubr
        </CharString>
        <CharString name="acute.cap">
          12 493 90 callsubr
          hstem
          457 565 -107 callgsubr
        </CharString>
        <CharString name="acute.dup">
          12 512 90 callsubr
          hstem
          460 584 -107 callgsubr
        </CharString>
        <CharString name="acute.ts1">
          12 512 90 callsubr
          hstem
          499 584 -107 callgsubr
        </CharString>
        <CharString name="adblgrave">
          35 callgsubr
          78 -21 118 -20 hstemhm
          hintmask 01100000
          -105 callgsubr
          hintmask 00011000
          113 296 -85 callgsubr
        </CharString>
        <CharString name="adieresis">
          35 callgsubr
          79 74 hstemhm
          224 76 96 76 hintmask 01100100
          -105 callgsubr
          hintmask 00011100
          -89 326 -62 callgsubr
        </CharString>
        <CharString name="adotbelow">
          164 callgsubr
          -25 callgsubr
          hintmask 01000000
          -17 -40 -46 0 -7 hhcurveto
          -68 -36 41 44 8 hvcurveto
          7 47 77 49 180 6 rrcurveto
          hintmask 10001000
          -119 -389 rmoveto
          23 3 -15 -98 callsubr
          endchar
        </CharString>
        <CharString name="ae">
          -24 callsubr
        </CharString>
        <CharString name="ae.dup">
          -24 callsubr
        </CharString>
        <CharString name="aeacute">
          -6 44 157 43 -41 43 106 43 2 44 77 73 callsubr
          71 53 16 73 -43 53 hintmask 1011100010000000
          746 103 rmoveto
          20 4 -22 0 -4 hhcurveto
          -11 68 callgsubr
          -37 -65 -11 -78 -78 hvcurveto
          89 -40 -93 0 -28 hhcurveto
          -40 -97 0 -66 -11 hvcurveto
          hintmask 0000000001000000
          -25 -5 15 -13 20 hhcurveto
          hintmask 1101100110000000
          13 24 8 30 6 hvcurveto
          2 13 0 4 26 3 rrcurveto
          1 16 10 1 14 hhcurveto
          87 43 -40 -73 -13 hvcurveto
          -6 -40 -72 -2 -230 -7 -19 -117 rlinecurve
          -62 -11 51 -56 96 hhcurveto
          48 102 9 80 51 hvcurveto
          -76 53 67 -13 43 hhcurveto
          112 59 84 25 4 hvcurveto
          -30 137 rmoveto
          hintmask 1010100101000000
          -270 hlineto
          96 34 76 55 65 hhcurveto
          80 23 -68 -83 -8 hvcurveto
          -339 -118 rmoveto
          -3 -18 -5 -30 -53 -20 rrcurveto
          -15 -38 -43 -1 -12 hhcurveto
          -67 -39 34 41 7 hvcurveto
          7 40 85 22 18 5 rrcurveto
          hintmask 0100000000000000
          48 11 43 2 61 2 rrcurveto
          hintmask 0000011000000000
          191 389 -107 callgsubr
        </CharString>
        <CharString name="agrave">
          35 callgsubr
          77 73 callsubr
          hintmask 01100000
          -105 callgsubr
          hintmask 00011000
          53 298 rmoveto
          -101 callsubr
        </CharString>
        <CharString name="ahookabove">
          35 callgsubr
          8 105 callsubr
          262 39 callgsubr
          -33 callgsubr
          hintmask 0100000000000000
          -36 19 40 -1 41 hhcurveto
          22 19 0 23 4 hvcurveto
          -133 106 rmoveto
          -5 -26 -4 -27 -50 -21 rrcurveto
          hintmask 1000000000000000
          -17 -40 -46 0 -7 hhcurveto
          -68 -36 41 44 8 hvcurveto
          7 47 77 49 180 6 rrcurveto
          hintmask 0001110101000000
          56 363 -74 callsubr
          hintmask 0001001000000000
          -34 callgsubr
          hintmask 0001000110000000
          20 callsubr
        </CharString>
        <CharString name="amacron">
          35 callgsubr
          93 46 -38 callgsubr
          144 325 -93 callsubr
        </CharString>
        <CharString name="ampersand">
          304 -11 44 29 44 -15 44 246 45 152 44 hstemhm
          259 39 0 40 77 53 1 40 41 39 132 40 hintmask 1101110111100000
          833 403 rmoveto
          -53 callsubr
          -219 hlineto
          -12 -20 0 -23 93 callgsubr
          11 hhcurveto
          95 hlineto
          -104 -134 -47 -59 -83 -71 -13 13 -72 73 -37 99 119 76 62 52 10 60 rrcurveto
          61 10 -28 71 -76 hhcurveto
          -59 -82 -45 -93 -15 hvcurveto
          -8 -49 2 -57 15 -59 -129 -81 rcurveline
          -32 -21 -35 -36 -8 -48 rrcurveto
          -86 -14 76 -58 101 hhcurveto
          69 69 26 47 66 hvcurveto
          -59 77 56 -14 50 hhcurveto
          90 63 58 53 9 hvcurveto
          4 23 -19 1 0 vvcurveto
          -13 -6 -10 -8 -3 hvcurveto
          -52 -16 -54 -21 -47 hhcurveto
          hintmask 1011110111100000
          -41 -54 14 44 -59 hvcurveto
          18 15 27 24 76 85 20 24 rcurveline
          112 142 rlineto
          77 121 callsubr
          -364 87 rmoveto
          -7 -42 -92 -65 -65 -40 -18 76 10 61 1 4 rrcurveto
          72 12 66 22 31 hhcurveto
          52 16 -52 -36 -6 hvcurveto
          -65 -399 rmoveto
          -21 -33 -60 -37 -75 hhcurveto
          -76 -52 45 57 10 hvcurveto
          8 50 42 26 114 67 rrcurveto
          hintmask 0010001000000000
          18 -48 23 -34 15 -23 22 -34 31 -35 13 -13 rrcurveto
          endchar
        </CharString>
        <CharString name="anglearc">
          304 -24 -21 702 -20 hstemhm
          574 54 2 54 -16 54 hintmask 00010000
          764 27 rmoveto
          1 10 -4 10 -9 4 -135 62 rcurveline
          34 67 23 63 10 63 11 63 -2 63 -12 67 156 62 rcurveline
          10 4 8 10 2 10 rrcurveto
          15 2 -10 12 -14 hhcurveto
          -4 -4 -1 -1 -3 hvcurveto
          hintmask 11101000
          -156 -62 -13 40 -15 30 -18 30 rlinecurve
          6 -4 -6 3 -8 hhcurveto
          -16 -13 -12 -14 -3 hvcurveto
          -1 -6 0 -7 3 -4 16 -24 13 -27 13 -37 -488 -196 rcurveline
          -10 -3 -8 -10 -2 -11 -2 -11 5 -10 9 -3 422 -196 rcurveline
          -25 -37 -21 -27 -24 -24 -5 -4 -2 -6 -1 -7 rrcurveto
          -14 -3 9 -12 16 hhcurveto
          8 8 3 6 6 hvcurveto
          28 30 25 30 27 41 134 -63 rcurveline
          -1 3 4 -1 4 hhcurveto
          14 14 12 15 3 hvcurveto
          -134 279 rmoveto
          -9 -56 -18 -54 -32 -61 -368 171 rcurveline
          425 171 rlineto
          hintmask 00010000
          11 -61 0 -54 -9 -56 rrcurveto
          endchar
        </CharString>
        <CharString name="angleleft">
          -105 -65 -21 784 -20 hstem
          334 -55 rmoveto
          -104 361 224 361 rlineto
          13 8 -14 18 -15 hhcurveto
          -11 -8 -5 -10 -7 hvcurveto
          -220 -349 rlineto
          -12 -19 -2 -3 -7 vvcurveto
          -1 -6 0 -2 5 -19 104 -349 rcurveline
          -10 3 8 -5 11 hhcurveto
          15 20 18 13 -4 hvcurveto
          endchar
        </CharString>
        <CharString name="angleright">
          -105 -67 -21 784 -20 hstem
          334 305 rmoveto
          1 6 0 2 -6 19 -103 349 rcurveline
          10 -4 -7 5 -11 hhcurveto
          -15 -20 -18 -13 4 hvcurveto
          104 -361 -225 -361 rlineto
          -13 -8 14 -18 15 hhcurveto
          11 9 5 10 7 hvcurveto
          220 349 rlineto
          12 19 2 3 7 vvcurveto
          endchar
        </CharString>
        <CharString name="aogonek">
          -3 -209 37 166 44 -38 44 347 44 -13 callsubr
          endchar
        </CharString>
        <CharString name="aogonekacute">
          -3 -209 37 166 44 -38 44 347 44 77 -21 120 -20 -13 callsubr
          hintmask 00001100
          64 359 -107 callgsubr
        </CharString>
        <CharString name="aring">
          35 callgsubr
          57 29 78 29 hstemhm
          396 43 hintmask 01100100
          -105 callgsubr
          hintmask 00011000
          27 335 30 callsubr
        </CharString>
        <CharString name="aringacute">
          35 callgsubr
          57 234 callgsubr
          hstemhm
          396 43 hintmask 01100010
          -105 callgsubr
          hintmask 00011110
          27 335 -32 callgsubr
          20 181 42 callsubr
        </CharString>
        <CharString name="asciicircum">
          12 517 -21 hstem
          537 519 rmoveto
          1 7 -4 7 -7 4 -154 81 rcurveline
          -5 2 -6 0 -5 -2 -180 -81 rcurveline
          -9 -4 -6 -7 -1 -7 rrcurveto
          -11 -2 6 -12 12 hhcurveto
          3 3 1 1 3 hvcurveto
          170 68 148 -68 rlineto
          -1 3 3 -1 3 hhcurveto
          12 10 12 11 2 hvcurveto
          endchar
        </CharString>
        <CharString name="asciitilde">
          12 253 -15 callgsubr
          hintmask 00010000
          490 334 -26 callgsubr
          hintmask 00100000
          -86 callgsubr
          hintmask 10010000
          -88 callsubr
          hintmask 01000000
          -8 callgsubr
        </CharString>
        <CharString name="asciitilde.low">
          12 0 48 9 48 hstem
          448 81 -26 callgsubr
          -8 -6 -4 -5 -6 hvcurveto
          -31 -38 -33 -17 -15 hhcurveto
          -13 -8 10 29 -26 hvcurveto
          22 callgsubr
          -25 hvcurveto
          -21 -14 -32 -21 -2 -14 rrcurveto
          -12 -69 callsubr
          33 17 15 hhcurveto
          13 8 -10 -29 26 hvcurveto
          -9 11 14 -9 19 hhcurveto
          -46 callsubr
        </CharString>
        <CharString name="asterisk">
          -4 callsubr
        </CharString>
        <CharString name="asterisk.math">
          -4 callsubr
        </CharString>
        <CharString name="at">
          187 -6 44 71 45 303 45 71 44 hstem
          109 40 173 39 vstem
          653 73 rmoveto
          20 4 -23 0 -7 hhcurveto
          -9 -3 0 -2 -6 hvcurveto
          -45 -88 -65 -8 -41 hhcurveto
          -176 -114 125 142 24 hvcurveto
          148 25 159 120 171 hhcurveto
          36 35 -7 -18 28 hvcurveto
          22 -13 16 -19 20 -66 rrcurveto
          43 -55 -35 9 -31 hhcurveto
          -104 -96 -90 -106 -18 hvcurveto
          -112 -19 71 -85 99 hhcurveto
          81 116 62 145 24 hvcurveto
          114 19 10 187 -212 hhcurveto
          -193 -181 -141 -170 -28 hvcurveto
          -170 -28 130 -142 198 hhcurveto
          83 76 25 37 70 hvcurveto
          8 4 6 5 1 8 rrcurveto
          -1 233 rmoveto
          -87 -14 -79 -65 -77 hhcurveto
          -83 -52 70 81 14 hvcurveto
          87 14 79 65 77 hhcurveto
          84 51 -70 -81 -14 hvcurveto
          endchar
        </CharString>
        <CharString name="atilde">
          35 callgsubr
          64 -15 callgsubr
          hintmask 01100000
          -105 callgsubr
          hintmask 00000010
          135 355 -26 callgsubr
          hintmask 00000100
          -86 callgsubr
          hintmask 00010010
          -88 callsubr
          hintmask 00001000
          -8 callgsubr
        </CharString>
        <CharString name="b">
          70 -6 44 349 45 135 44 hstem
          211 90 callgsubr
          -89 -534 rlineto
          -16 -3 -3 -17 27 hhcurveto
          25 3 16 53 9 hvcurveto
          51 callgsubr
          12 69 rlineto
          124 callgsubr
        </CharString>
        <CharString name="backslash">
          182 callgsubr
          453 -59 rmoveto
          1 7 -2 9 -1 5 -223 712 rcurveline
          8 -2 -6 15 -16 hhcurveto
          -15 -14 -13 -14 -2 hvcurveto
          -1 -7 2 -9 1 -5 222 -712 rcurveline
          -8 3 6 -15 16 hhcurveto
          15 14 13 14 2 hvcurveto
          endchar
        </CharString>
        <CharString name="baht">
          216 -75 -21 96 158 callsubr
          96 -20 hstem
          383 45 -45 53 -45 45 cntrmask 00000111
          697 163 rmoveto
          11 66 -30 64 -151 27 115 27 63 42 12 72 rrcurveto
          79 13 -87 71 -131 hhcurveto
          -31 hlineto
          12 73 rlineto
          13 244 callsubr
          -13 -12 -10 -13 -2 hvcurveto
          -12 -73 rlineto
          -256 hlineto
          -13 -19 62 callsubr
          12 hhcurveto
          64 hlineto
          172 callsubr
          -64 -72 callsubr
          256 hlineto
          -12 -73 rlineto
          189 callgsubr
          231 callsubr
          12 73 rlineto
          60 hlineto
          134 110 78 85 14 hvcurveto
          -32 297 rmoveto
          -10 -59 -88 -57 -131 -4 38 227 rcurveline
          29 hlineto
          106 65 -53 -54 -9 hvcurveto
          -274 -120 rmoveto
          -139 hlineto
          38 227 rlineto
          139 hlineto
          216 -402 rmoveto
          -68 -12 -104 -53 -112 hhcurveto
          -31 hlineto
          42 252 rlineto
          28 hlineto
          108 92 -63 -68 -11 hvcurveto
          -304 -121 rmoveto
          -139 hlineto
          42 252 rlineto
          139 hlineto
          endchar
        </CharString>
        <CharString name="bar">
          182 callgsubr
          227 54 64 54 vstem
          281 -46 rmoveto
          68 callsubr
          endchar
        </CharString>
        <CharString name="bigcircle">
          98 0 40 531 40 hstem
          51 40 531 40 vstem
          -57 callsubr
          endchar
        </CharString>
        <CharString name="blanksymbol">
          70 -6 44 349 45 135 44 hstemhm
          93 52 40 52 -26 52 54 52 151 52 hintmask 01000110
          88 callsubr
          17 102 124 94 5 3 4 7 1 6 rlinecurve
          12 2 -9 11 -12 hhcurveto
          -6 -5 -3 -3 -6 hvcurveto
          -88 -67 8 51 rlineto
          hintmask 11111011
          76 callsubr
          -15 -86 -102 -77 -6 -4 -3 -6 -1 -7 rlinecurve
          -12 213 callgsubr
          5 6 2 3 4 hvcurveto
          68 51 -64 -388 rlineto
          -16 -3 -3 -17 27 hhcurveto
          25 3 16 53 9 hvcurveto
          51 callgsubr
          hintmask 01000101
          12 69 rlineto
          124 callgsubr
        </CharString>
        <CharString name="braceleft">
          12 -86 45 325 44 324 45 hstem
          243 53 vstem
          453 -63 rmoveto
          18 3 -13 4 -8 hhcurveto
          -138 -7 47 34 6 hvcurveto
          27 166 4 24 4 38 -60 37 rlinecurve
          58 31 20 31 5 24 rrcurveto
          0 32 205 6 9 vhcurveto
          42 26 99 5 38 hhcurveto
          5 14 5 17 2 hvcurveto
          23 4 -20 0 -14 hhcurveto
          -69 -110 -11 -86 -31 hvcurveto
          -2 -6 -28 -172 0 vvcurveto
          -6 -41 -4 -17 -44 -19 rrcurveto
          -16 -42 -53 -1 -24 hhcurveto
          -5 -14 -5 -17 -3 hvcurveto
          -18 -3 11 -4 8 hhcurveto
          35 -2 118 -7 -8 -61 -29 -171 rcurveline
          -4 -28 -8 -44 45 -27 rrcurveto
          -23 38 54 -7 48 hhcurveto
          14 20 0 23 3 hvcurveto
          endchar
        </CharString>
        <CharString name="braceright">
          12 -86 45 324 44 325 45 hstem
          331 53 vstem
          515 305 rmoveto
          3 18 -11 3 -8 1 -33 2 -119 6 8 63 29 172 rcurveline
          4 26 8 44 -45 27 rrcurveto
          26 -43 -63 4 -35 hhcurveto
          -13 -21 -28 callsubr
          -19 -3 14 -3 11 hhcurveto
          141 2 -46 -36 -6 hvcurveto
          -28 -166 -6 -38 9 -30 51 -30 rlinecurve
          -73 -38 -11 -44 -4 vvcurveto
          -31 -183 rlineto
          -32 -5 -15 -46 -151 hhcurveto
          -5 -14 -5 -17 -3 callgsubr
          -3 21 0 13 hhcurveto
          85 97 18 79 28 hvcurveto
          2 6 29 172 0 vvcurveto
          6 41 4 17 44 19 rrcurveto
          16 42 51 1 25 hhcurveto
          5 14 5 17 3 hvcurveto
          endchar
        </CharString>
        <CharString name="bracketleft">
          -216 -86 45 693 45 hstem
          257 -64 rmoveto
          -53 callsubr
          -65 hlineto
          116 693 rlineto
          65 38 callsubr
          -86 hlineto
          -26 -7 -8 -25 -4 hvcurveto
          -120 -717 rlineto
          -24 -4 4 -9 27 hhcurveto
          86 216 callgsubr
        </CharString>
        <CharString name="bracketright">
          -216 -86 45 693 45 hstem
          169 -53 rmoveto
          120 717 rlineto
          24 4 -4 9 -27 hhcurveto
          -86 hlineto
          -11 -21 0 -22 -52 callsubr
          20 0 12 hhcurveto
          65 hlineto
          -116 -693 rlineto
          -65 hlineto
          -11 -21 -22 callsubr
          20 0 12 hhcurveto
          86 hlineto
          26 7 8 25 4 hvcurveto
          endchar
        </CharString>
        <CharString name="breve">
          12 502 47 51 -20 hstem
          531 577 -103 callgsubr
          endchar
        </CharString>
        <CharString name="breve.cap">
          12 472 47 51 -20 hstem
          526 547 -103 callgsubr
          endchar
        </CharString>
        <CharString name="breve.ts1">
          129 513 48 51 -20 hstem
          650 589 rmoveto
          11 2 -8 12 -13 hhcurveto
          -24 2 -21 -9 -12 hvcurveto
          -18 -24 -73 -3 -87 hhcurveto
          -87 -71 3 18 -18 hvcurveto
          9 -8 8 21 -24 hhcurveto
          -13 -12 -12 -11 -2 hvcurveto
          -7 -42 30 -22 70 -8 rrcurveto
          -4 34 42 0 51 hhcurveto
          21 72 0 4 34 hvcurveto
          74 8 36 22 7 42 rrcurveto
          endchar
        </CharString>
        <CharString name="brokenbar">
          12 -65 -21 783 -20 hstemhm
          227 54 -12 54 -20 54 -12 54 hintmask 01000100
          357 410 rmoveto
          42 247 156 callsubr
          hintmask 00001000
          -42 -247 rlineto
          -13 -2 12 -10 14 hhcurveto
          14 14 10 13 2 hvcurveto
          -76 -456 rmoveto
          hintmask 00010000
          173 callgsubr
          13 2 -12 10 -14 hhcurveto
          -14 -14 -10 -13 -2 hvcurveto
          hintmask 10100000
          -42 -247 rlineto
          -10 -1 -5 -30 27 hhcurveto
          27 5 30 10 1 hvcurveto
          endchar
        </CharString>
        <CharString name="bullet">
          304 99 266 hstem
          314 266 134 callgsubr
          endchar
        </CharString>
        <CharString name="c">
          -46 86 callsubr
          hstem
          84 52 274 74 vstem
          -55 callgsubr
          endchar
        </CharString>
        <CharString name="cacute">
          -46 86 callsubr
          77 73 callsubr
          84 52 274 74 hintmask 11001100
          -55 callgsubr
          hintmask 00110000
          4 481 -107 callgsubr
        </CharString>
        <CharString name="caron">
          12 611 -20 hstem
          504 590 -92 callsubr
        </CharString>
        <CharString name="caron.cap">
          12 548 -20 hstem
          493 526 -99 callgsubr
        </CharString>
        <CharString name="caron.ts1">
          129 512 -21 127 -20 hstem
          634 584 rmoveto
          14 3 -3 20 -17 hhcurveto
          -6 -24 -9 -6 -15 hvcurveto
          0 -153 -58 -6 -1 vhcurveto
          -6 1 -133 58 0 vvcurveto
          6 -13 -22 9 -6 hhcurveto
          -17 -9 -20 -14 -3 hvcurveto
          -1 -11 30 -14 22 -8 150 -60 rcurveline
          168 60 24 9 36 13 1 11 rlinecurve
          endchar
        </CharString>
        <CharString name="ccaron">
          -46 86 callsubr
          176 -20 hstemhm
          84 52 274 74 hintmask 11011000
          -55 callgsubr
          hintmask 00100000
          48 487 -92 callsubr
        </CharString>
        <CharString name="ccedilla">
          -46 -214 45 162 45 353 44 hstemhm
          84 52 2 53 64 53 -48 53 -36 53 0 53 hintmask 0111000100000000
          451 103 rmoveto
          20 4 -22 0 -5 hhcurveto
          -10 -7 -1 -8 -7 hvcurveto
          -23 -14 -33 -53 -80 hhcurveto
          -92 -66 76 99 17 hvcurveto
          52 8 52 126 146 hhcurveto
          26 44 -8 -11 -2 hvcurveto
          -29 -4 13 -12 20 hhcurveto
          20 21 14 24 4 hvcurveto
          66 11 -102 0 -43 hhcurveto
          -170 -82 -135 -87 -14 hvcurveto
          hintmask 0100001000000000
          -19 -114 69 -98 126 -8 rrcurveto
          hintmask 1000110010000000
          -5 -30 171 callgsubr
          rlinecurve
          39 -2 24 155 callsubr
          -25 -24 -110 hhcurveto
          -26 -23 -28 callsubr
          -17 -3 14 -5 8 hhcurveto
          82 128 0 94 16 hvcurveto
          8 50 -32 29 -51 14 rrcurveto
          hintmask 0000001000000000
          5 25 101 23 35 69 2 13 rlinecurve
          endchar
        </CharString>
        <CharString name="ccircumflex">
          -46 86 callsubr
          78 -21 hstemhm
          84 52 274 74 hintmask 11011000
          -55 callgsubr
          hintmask 00100000
          36 410 -94 callsubr
          endchar
        </CharString>
        <CharString name="cdotaccent">
          -46 86 callsubr
          74 84 hstemhm
          84 52 170 85 19 74 hintmask 11010100
          -55 callgsubr
          hintmask 00101000
          -60 448 rmoveto
          23 4 -16 -98 callsubr
          endchar
        </CharString>
        <CharString name="cedilla">
          48 callsubr
        </CharString>
        <CharString name="cedilla.dup">
          48 callsubr
        </CharString>
        <CharString name="cent">
          -46 -75 -21 90 123 callgsubr
          86 -20 hstemhm
          84 52 87 45 -34 45 -45 52 14 45 -27 45 47 74 -45 45 hintmask 0110000110100000
          451 239 callsubr
          -11 -6 hvcurveto
          -12 -19 -26 -45 -79 -9 59 353 rcurveline
          36 31 -9 -10 -2 hvcurveto
          hintmask 0010000001010000
          -29 -4 13 -12 20 hhcurveto
          20 21 14 24 4 hvcurveto
          64 10 -85 2 -56 hhcurveto
          10 64 rlineto
          hintmask 0001000010000000
          12 244 callsubr
          hintmask 0000101001000000
          -13 -12 -10 -12 -2 hvcurveto
          -11 -67 -144 -25 -66 -116 -13 -78 rlinecurve
          -18 -105 59 -93 109 -20 rrcurveto
          hintmask 1000010000000000
          -11 -68 rlineto
          189 callgsubr
          231 callsubr
          hintmask 0100101010000000
          11 67 126 10 44 84 2 15 rlinecurve
          -209 -61 rmoveto
          -79 24 -41 66 14 81 7 45 40 99 117 30 rrcurveto
          endchar
        </CharString>
</ttFont>
